<?xml version="1.0" standalone="no"?>
<!DOCTYPE svg PUBLIC "-//W3C//DTD SVG 1.1//EN" "http://www.w3.org/Graphics/SVG/1.1/DTD/svg11.dtd" >
<svg xmlns="http://www.w3.org/2000/svg">
<metadata>Generated by IcoMoon</metadata>
<defs>
<font id="icons" horiz-adv-x="1024">
<font-face units-per-em="1024" ascent="960" descent="-64" />
<missing-glyph horiz-adv-x="1024" />
<glyph unicode="&#x20;" horiz-adv-x="512" d="" />
<glyph unicode="&#xe900;" glyph-name="calendar, agenda-pe" d="M97.883-39.937c-40.659 0-73.788 33.069-73.788 73.788v745.412c0 40.659 33.129 73.788 73.788 73.788h828.235c40.719 0 73.788-33.129 73.788-73.788v-745.412c0-40.719-33.069-73.788-73.788-73.788h-828.235zM88.848 24.816h846.125l0.181 763.482h-846.306v-763.482zM346.354 705.475c-17.89 0-32.407 14.517-32.407 32.407v165.647c0 17.89 14.517 32.407 32.407 32.407s32.407-14.517 32.407-32.407v-165.647c0-17.89-14.517-32.407-32.407-32.407zM677.648 705.475c-17.83 0-32.346 14.517-32.346 32.407v165.647c0 17.89 14.517 32.407 32.346 32.407s32.346-14.517 32.346-32.407v-165.647c0-17.89-14.517-32.407-32.346-32.407zM719.090 457.004c-17.89 0-32.407 14.517-32.407 32.407v82.763c0 17.89 14.517 32.407 32.407 32.407h82.824c17.83 0 32.346-14.517 32.346-32.407v-82.824c0-17.83-14.517-32.346-32.346-32.346h-82.824zM719.090 208.534c-17.89 0-32.407 14.517-32.407 32.346v82.824c0 17.89 14.517 32.407 32.407 32.407h82.824c17.83 0 32.346-14.517 32.346-32.407v-82.824c0-17.83-14.517-32.346-32.346-32.346h-82.824zM222.149 457.004c-17.89 0-32.407 14.517-32.407 32.407v82.763c0 17.89 14.517 32.407 32.407 32.407h82.824c17.89 0 32.407-14.517 32.407-32.407v-82.824c-0.060-17.83-14.637-32.346-32.467-32.346h-82.763zM222.149 208.534c-17.89 0-32.407 14.517-32.407 32.346v82.824c0 17.83 14.517 32.346 32.407 32.346h82.824c17.89 0 32.407-14.517 32.407-32.346v-82.824c-0.060-17.83-14.637-32.346-32.467-32.346h-82.763zM470.559 457.004c-17.89 0-32.407 14.517-32.407 32.407v82.763c0 17.89 14.517 32.407 32.407 32.407h82.824c17.83 0 32.346-14.517 32.346-32.407v-82.824c0-17.83-14.517-32.346-32.346-32.346h-82.824zM470.559 208.534c-17.89 0-32.407 14.517-32.407 32.346v82.824c0 17.89 14.517 32.407 32.407 32.407h82.824c17.83 0 32.346-14.517 32.346-32.407v-82.824c0-17.83-14.517-32.346-32.346-32.346h-82.824z" />
<glyph unicode="&#xe901;" glyph-name="check" d="M353.912 191.006c-11.806 0-22.889 4.578-31.262 12.951l-266.059 265.999c-17.167 17.227-17.167 45.237 0 62.464 8.373 8.373 19.396 12.951 31.202 12.951s22.889-4.578 31.262-12.951l239.375-239.315 554.767 403.396c7.65 5.542 16.625 8.493 25.961 8.493 14.035 0 27.347-6.807 35.659-18.191 6.927-9.577 9.758-21.203 7.951-32.828-1.807-11.686-8.132-21.926-17.649-28.913l-585.246-425.743c-7.59-5.421-16.565-8.312-25.961-8.312z" />
<glyph unicode="&#xe902;" glyph-name="clock" d="M512-24.666c-260.638 0-472.666 212.028-472.666 472.666s212.088 472.666 472.666 472.666c260.638 0 472.666-212.088 472.666-472.666 0-260.638-212.028-472.666-472.666-472.666zM512 858.443c-226.304 0-410.443-184.139-410.443-410.443 0-226.424 184.139-410.564 410.443-410.564 226.424 0 410.564 184.2 410.564 410.564 0 226.304-184.139 410.443-410.564 410.443zM512 416.919c-17.167 0-31.142 13.914-31.142 31.081v281.058c0 17.167 13.975 31.081 31.142 31.081s31.081-13.914 31.081-31.081v-281.058c0-17.167-13.914-31.081-31.081-31.081zM672.527 256.331c-8.312 0-16.143 3.253-21.986 9.096l-160.587 160.527c-12.047 12.168-12.047 31.925 0 44.032 5.843 5.843 13.734 9.035 22.046 9.035s16.143-3.192 21.986-9.035l160.467-160.708c6.024-5.843 9.216-13.613 9.216-21.805 0-8.312-3.253-16.083-9.156-21.926-5.963-6.084-13.553-9.216-21.986-9.216z" />
<glyph unicode="&#xe903;" glyph-name="descriptif, signalement-changement-situation" d="M267.265 579.404c-17.528 0-31.744 14.216-31.744 31.744 0 17.589 14.276 31.804 31.744 31.804h489.592c17.468 0 31.684-14.276 31.684-31.804 0-17.468-14.276-31.744-31.804-31.744h-489.472zM267.265 457.006c-17.589 0-31.804 14.216-31.804 31.744s14.276 31.744 31.744 31.744h326.355c17.589 0 31.804-14.276 31.804-31.744s-14.276-31.744-31.804-31.744h-326.295zM226.426 8.253c-3.253 0-6.927 0.663-10.662 1.867-12.529 4.337-21.082 16.324-21.082 29.816v204.077c0 17.528 14.216 31.744 31.744 31.744s31.744-14.216 31.744-31.744v-113.483l106.616 133.361c6.084 7.529 15.119 11.866 24.877 11.866 7.288 0 14.095-2.409 19.697-6.927 6.686-5.301 10.842-12.83 11.746-21.263s-1.446-16.625-6.746-23.191l-163.117-204.198c-5.963-7.529-15.24-11.927-24.817-11.927zM389.603 212.21c-17.528 0-31.744 14.276-31.744 31.925 0 17.468 14.216 31.684 31.744 31.684h539.407v548.322h-833.958v-548.382h131.373c17.528 0 31.744-14.216 31.744-31.744s-14.276-31.804-31.744-31.804h-122.338c-40.056 0-72.584 32.467-72.584 72.463v530.432c0 40.056 32.587 72.644 72.584 72.644h815.827c39.996 0 72.523-32.587 72.523-72.644v-530.312c0.060-19.336-7.469-37.527-21.263-51.32-13.734-13.794-31.925-21.323-51.32-21.323h-530.251z" />
<glyph unicode="&#xe904;" glyph-name="diffusion" d="M831.005 616.538c-82.884 0-150.287 67.464-150.287 150.408s67.403 150.468 150.287 150.468c82.944 0 150.408-67.524 150.408-150.468s-67.464-150.408-150.408-150.408zM831.005 855.853c-48.911 0-88.787-39.816-88.787-88.787 0-48.911 39.816-88.787 88.787-88.787s88.907 39.816 88.907 88.787c-0.060 48.971-39.936 88.787-88.907 88.787zM831.005-21.414c-82.884 0-150.287 67.464-150.287 150.408 0 82.884 67.403 150.287 150.287 150.287 82.944 0 150.408-67.403 150.408-150.287 0-82.944-67.464-150.408-150.408-150.408zM831.005 217.781c-48.911 0-88.787-39.816-88.787-88.787s39.816-88.907 88.787-88.907c48.971 0 88.907 39.876 88.907 88.907-0.060 48.971-39.936 88.787-88.907 88.787zM192.933 297.653c-82.884 0-150.347 67.464-150.347 150.408s67.464 150.408 150.347 150.408c83.004 0 150.528-67.464 150.528-150.408s-67.524-150.408-150.528-150.408zM192.933 536.847c-48.911 0-88.727-39.816-88.727-88.787 0-48.911 39.816-88.727 88.727-88.727s88.787 39.816 88.787 88.727c0 48.971-39.816 88.787-88.787 88.787zM307.259 475.588c-11.746 0-22.408 6.566-27.648 17.167-3.674 7.288-4.337 15.541-1.747 23.311 2.59 7.831 8.132 14.216 15.601 17.95l409.54 204.74c4.337 2.229 8.975 3.313 13.794 3.313 11.746 0 22.287-6.505 27.467-16.986 3.735-7.409 4.277-15.721 1.687-23.552s-8.072-14.155-15.48-17.83l-409.48-204.74c-4.518-2.229-8.975-3.373-13.734-3.373zM716.679 153.991c-4.879 0-9.638 1.144-14.035 3.313l-402.071 204.74c-15.059 7.71-21.203 26.443-13.553 41.683 5.24 10.3 15.782 16.685 27.528 16.685 4.879 0 9.638-1.144 13.975-3.373l402.191-204.619c15.119-7.77 21.203-26.383 13.493-41.442-5.301-10.481-15.842-16.986-27.528-16.986z" />
<glyph unicode="&#xe905;" glyph-name="error" d="M512.030-32.828c-265.156 0-480.858 215.703-480.858 480.798 0 265.156 215.703 480.858 480.858 480.858 265.096 0 480.798-215.703 480.798-480.858 0-265.096-215.703-480.798-480.798-480.798zM512.030 865.22c-230.039 0-417.25-187.151-417.25-417.25s187.151-417.31 417.25-417.31 417.31 187.211 417.31 417.31-187.272 417.25-417.31 417.25zM465.348 225.943c0 28.491 19.817 48.971 46.682 48.971 28.491 0 46.562-20.6 46.562-48.971 0-27.708-18.071-49.032-46.562-49.032-27.708 0-46.682 21.323-46.682 49.032zM485.165 339.125l-11.144 379.904h76.017l-11.083-379.904h-53.79z" />
<glyph unicode="&#xe906;" glyph-name="experience" d="M511.971 257.294c-182.272 0-330.511 148.239-330.511 330.511 0 88.124 34.394 171.128 96.919 233.653 62.464 62.464 145.468 96.919 233.592 96.919 182.152 0 330.391-148.299 330.391-330.571s-148.239-330.511-330.391-330.511zM511.971 856.575c-148.179 0-268.77-120.531-268.77-268.77 0-148.179 120.531-268.71 268.77-268.71 148.179 0 268.71 120.531 268.71 268.71s-120.531 268.77-268.71 268.77zM671.595-22.378c-11.746 0-22.347 6.626-27.648 17.348l-137.096 280.395c-3.674 7.469-4.216 15.902-1.506 23.733 2.65 7.77 8.252 14.035 15.661 17.709 4.277 2.108 8.855 3.192 13.553 3.192 11.927 0 22.588-6.626 27.829-17.408l106.556-217.931 54.031 135.168c4.819 11.746 16.023 19.396 28.491 19.396 2.048 0 4.156-0.181 6.264-0.602l131.012-26.263-135.469 224.798c-4.277 6.987-5.542 15.24-3.614 23.251 1.988 8.072 6.987 14.878 14.035 19.095 4.879 2.952 10.36 4.457 15.962 4.457 10.963 0 20.841-5.602 26.383-14.938l171.972-284.792c6.264-10.481 5.783-23.733-1.265-33.792-5.722-8.312-14.999-13.192-24.937-13.192-2.048 0-4.156 0.241-6.204 0.663l-174.622 35.177-70.355-176.008c-4.638-11.505-15.179-18.914-27.528-19.336l-1.506-0.12zM351.685-22.378c-12.83 0.482-23.672 8.132-28.25 19.456l-70.295 175.947-174.562-35.057c-2.108-0.482-4.156-0.663-6.264-0.663-9.939 0-19.275 4.879-24.998 13.192-7.108 10.18-7.59 23.371-1.265 33.792l171.851 284.792c5.542 9.336 15.42 14.938 26.323 14.938 5.602 0 11.144-1.566 16.023-4.457 7.108-4.277 12.107-11.144 14.035-19.215 1.928-8.011 0.663-16.203-3.554-23.191l-135.529-224.798 131.012 26.202c2.168 0.482 4.337 0.723 6.385 0.723 12.529 0 23.672-7.65 28.371-19.396l54.091-135.228 106.496 218.052c5.24 10.541 15.962 17.167 27.829 17.167 4.759 0 9.276-1.084 13.553-3.132 15.3-7.469 21.685-26.022 14.216-41.382l-137.276-280.395c-5.18-10.541-16.083-17.288-27.708-17.288h-0.482z" />
<glyph unicode="&#xe907;" glyph-name="file" d="M873.855 612.654c0 10.421-5.059 20.179-14.696 27.166l-281.285 281.404c-5.908 7.244-14.904 11.88-24.951 11.88h-0.062c-0.020 0-0.040 0.001-0.060 0.001s-0.039-0.001-0.060-0.001h-329.245c-40.479 0-73.367-32.888-73.367-73.306v-823.597c0-40.418 32.889-73.306 73.367-73.306v-0.001h576.392c40.418 0 73.307 32.888 73.307 73.306v569.734c0.447 2.184 0.675 4.432 0.66 6.72zM585.028 823.297l178.296-178.538h-178.296v178.538zM214.461 27.166v841.668h306.236v-256.18c0-17.771 14.457-32.227 32.226-32.227h256.061v-553.262h-594.523z" />
<glyph unicode="&#xe908;" glyph-name="flag" d="M105.984-30.209c-17.408 0-31.563 14.155-31.563 31.624v833.054c0 17.348 14.155 31.503 31.563 31.503s31.503-14.155 31.503-31.503v-833.235c0-17.348-14.155-31.443-31.503-31.443zM918.076 415.231c-17.408 0-31.563 14.095-31.563 31.443v447.247c0 17.408 14.155 31.563 31.563 31.563 17.348 0 31.443-14.155 31.443-31.563v-447.247c0.060-17.348-14.095-31.443-31.443-31.443zM699.181 781.763c-81.98 0-164.503 23.13-237.327 43.61-69.632 19.336-135.409 37.707-195.584 37.707-55.236 0-101.015-15.782-140.107-48.248-5.662-4.698-12.83-7.288-20.119-7.288-9.457 0-18.312 4.156-24.335 11.445-11.144 13.372-9.336 33.31 3.976 44.454 50.899 42.225 109.387 62.765 178.899 62.765 69.873 0 143.059-20.36 213.896-40.117 76.258-21.263 148.058-41.261 219.558-41.261 75.957 0 141.312 23.793 199.8 72.704 5.662 4.759 12.83 7.409 20.239 7.409 9.397 0 18.191-4.096 24.094-11.264 5.481-6.505 8.072-14.697 7.349-23.070-0.783-8.433-4.698-16.023-11.264-21.384-70.054-58.729-148.299-87.341-239.074-87.462v0zM699.181 335.118c-81.619 0-164.382 23.070-237.327 43.43-69.632 19.456-135.409 37.828-195.644 37.828-55.176 0-101.015-15.782-140.047-48.188-5.662-4.759-12.83-7.349-20.179-7.349-9.397 0-18.251 4.156-24.215 11.384-5.421 6.505-8.011 14.758-7.228 23.191 0.783 8.373 4.759 15.902 11.204 21.263 50.959 42.406 109.568 63.006 179.14 63.006 70.114 0 143.24-20.42 213.956-40.177 76.017-21.203 147.817-41.261 219.377-41.261 75.896 0 141.192 23.733 199.62 72.584 5.662 4.819 12.83 7.409 20.239 7.409 9.457 0 18.312-4.036 24.215-11.204 11.144-13.312 9.336-33.25-3.976-44.454-70.114-58.85-148.36-87.462-239.134-87.462z" />
<glyph unicode="&#xe909;" glyph-name="home, accueil-espace-perso" d="M669.344-30.368c-14.592 0-26.464 12.64-26.464 28.192 0 15.488 11.872 28.128 26.464 28.128h157.28c7.072 0 12.8 5.76 12.8 12.8v457.92c0 15.52 11.84 28.16 26.432 28.16s26.464-12.64 26.464-28.16v-457.984c0.032-19.072-7.2-36.8-20.384-49.984-12.288-12.32-28.384-19.072-45.312-19.072h-157.28zM197.632-30.368c-36.32 0-65.856 30.976-65.856 69.056v457.984c0 15.52 11.904 28.16 26.528 28.16s26.528-12.64 26.528-28.16v-457.984c0-7.072 5.728-12.8 12.8-12.8h157.216c14.624 0 26.528-12.64 26.528-28.128s-11.904-28.128-26.528-28.128h-157.216zM944.64 379.2c-7.392 0-14.272 3.2-19.328 8.96l-403.584 458.496c-2.432 2.752-5.952 4.352-9.6 4.352s-7.168-1.568-9.6-4.352l-403.456-458.464c-5.088-5.792-12-8.96-19.424-8.96-6.56 0-12.832 2.56-17.696 7.232-11.136 10.592-11.904 28.576-1.664 40.064l432.48 491.552c4.672 5.248 11.712 8.288 19.36 8.288s14.72-3.040 19.392-8.32l432.384-491.52c10.048-11.36 9.344-29.728-1.536-40.064-4.896-4.672-11.168-7.232-17.728-7.264v0zM669.344-30.368c-14.592 0-26.464 12.64-26.464 28.192v286.688c0 7.072-5.76 12.8-12.8 12.8h-235.872c-7.072 0-12.8-5.76-12.8-12.8v-286.688c0-15.552-11.904-28.192-26.528-28.192-14.592 0-26.464 12.64-26.464 28.192v286.688c0 38.080 29.504 69.056 65.792 69.056h235.936c36.352 0 65.888-30.976 65.888-69.056v-286.688c-0.064-15.552-12.032-28.192-26.688-28.192z" />
<glyph unicode="&#xe90a;" glyph-name="key" d="M638.615 373.76c-155.768 0-282.504 126.735-282.504 282.564s126.735 282.624 282.504 282.624c155.949 0 282.744-126.795 282.744-282.624s-126.795-282.564-282.744-282.564zM638.615 873.653c-119.808 0-217.269-97.521-217.269-217.329 0-119.868 97.461-217.389 217.269-217.389 119.928 0 217.51 97.521 217.51 217.389 0.060 119.808-97.581 217.329-217.51 217.329zM263.771-42.948c-8.794 0-16.926 3.373-23.070 9.517l-124.988 124.988c-12.649 12.71-12.649 33.37 0 46.080 6.204 6.264 14.396 9.698 23.13 9.698 8.674 0 16.866-3.494 23.070-9.638l125.048-124.988c6.144-6.144 9.577-14.336 9.577-23.070s-3.433-16.866-9.577-23.010c-6.264-6.204-14.517-9.577-23.191-9.577zM388.759 82.101c-8.794 0-16.986 3.373-23.010 9.397l-125.109 125.109c-12.649 12.71-12.649 33.431 0 46.14 6.204 6.204 14.396 9.577 23.13 9.577s16.926-3.433 23.070-9.577l124.988-125.048c12.649-12.649 12.649-33.37 0-46.2-6.144-6.084-14.336-9.397-23.070-9.397zM138.722 82.101c-8.433 0-16.444 3.132-22.588 8.855-12.951 12.408-13.493 33.19-1.084 46.2l335.872 353.22c6.204 6.505 14.637 10.12 23.672 10.12 8.373 0 16.384-3.192 22.468-8.975 6.325-6.024 9.999-14.155 10.18-22.889s-2.952-16.926-8.975-23.251l-335.932-353.28c-6.204-6.505-14.577-9.999-23.612-9.999z" />
<glyph unicode="&#xe90b;" glyph-name="langue" d="M201.94 30.66c-11.204 0-21.384 6.325-26.564 16.565-5.12 10.18-3.795 22.588 3.373 31.563 10.059 13.252 58.127 79.511 68.427 148.6l0.964 6.445-5.843 2.952c-85.956 43.249-186.308 140.047-186.308 270.878 0 197.21 204.559 357.677 456.041 357.677s455.981-160.467 455.981-357.677c0-198.897-204.559-360.629-455.981-360.629h-60.296l-2.65-3.915c-72.403-105.291-237.387-112.158-246.182-112.399h-0.964zM512.031 805.828c-218.654 0-396.589-133.783-396.589-298.225 0-103.424 87.763-192.452 174.441-227.027 11.324-4.578 18.733-15.48 18.733-27.588 0-41.743-12.469-87.883-37.045-136.975l-9.035-18.131 19.516 5.361c43.128 11.806 100.051 36.503 126.133 86.98 5 9.818 15.36 16.203 26.383 16.203h77.463c218.714 0 396.71 135.108 396.71 301.176 0 164.442-177.995 298.225-396.71 298.225z" />
<glyph unicode="&#xe90c;" glyph-name="link" d="M362.707 258.439c-8.072 0-15.782 3.192-21.624 9.035-5.783 5.722-8.975 13.312-9.035 21.384 0 8.312 3.192 16.143 9.035 21.926l317.922 317.801c5.783 5.843 13.553 9.035 21.745 9.035 8.252 0 15.902-3.192 21.624-8.975 5.903-5.843 9.096-13.553 9.096-21.745s-3.253-15.902-9.035-21.685l-317.922-317.741c-5.843-5.903-13.613-9.035-21.805-9.035zM680.81 417.039c-16.926 0-30.78 13.794-30.78 30.72s13.794 30.72 30.78 30.72h16.324c38.671 0 75.053 15.059 102.34 42.345l86.438 86.377c27.467 27.467 42.526 63.849 42.406 102.46 0 38.611-15.059 74.933-42.406 102.34-27.287 27.347-63.669 42.345-102.4 42.345-38.852 0-75.174-15.059-102.4-42.345l-86.438-86.377c-27.347-27.467-42.406-63.849-42.406-102.46v-16.143c0-16.986-13.794-30.78-30.78-30.78-16.926 0-30.72 13.794-30.72 30.78v16.143c0 54.874 21.504 106.677 60.476 145.95l86.377 86.317c38.912 38.912 90.654 60.296 145.83 60.296s106.918-21.384 145.83-60.296c39.032-38.852 60.536-90.594 60.536-145.769 0.12-54.995-21.323-106.797-60.476-145.89l-86.498-86.377c-38.792-38.912-90.534-60.356-145.709-60.356h-16.324zM260.247-19.727c-55.176 0-106.978 21.384-145.83 60.296-80.354 80.354-80.354 211.245 0 291.78l86.317 86.317c39.032 38.852 90.835 60.235 145.89 60.235h16.384c16.926 0 30.72-13.794 30.72-30.66s-13.794-30.66-30.72-30.66h-16.384c-38.852 0-75.234-15.059-102.46-42.406l-86.377-86.257c-56.38-56.561-56.38-148.48 0-204.92 27.287-27.287 63.669-42.345 102.46-42.345 38.731 0 75.174 15.059 102.52 42.285l86.377 86.438c27.407 27.588 42.466 63.97 42.466 102.52v16.264c0 16.926 13.794 30.72 30.72 30.72s30.66-13.794 30.66-30.72v-16.324c0-55.055-21.444-106.857-60.416-145.89l-86.438-86.438c-38.972-38.792-90.775-60.235-145.89-60.235z" />
<glyph unicode="&#xe90d;" glyph-name="lock, me-deconnecter" d="M226.516-32.346c-62.464 0-113.303 50.839-113.303 113.303v407.853c0 62.464 50.839 113.303 113.303 113.303h570.97c62.464 0 113.242-50.839 113.242-113.303v-407.853c0.060-30.178-11.625-58.609-33.069-79.992-21.384-21.444-49.935-33.31-80.233-33.31h-570.91zM226.516 538.624c-27.467 0-49.815-22.347-49.815-49.815v-407.853c0-27.467 22.347-49.875 49.815-49.875h570.97c27.528 0 49.935 22.408 49.935 49.875v407.853c0 27.467-22.408 49.815-49.935 49.815h-570.97zM584.554 366.471c0-40.054-32.47-72.523-72.523-72.523s-72.523 32.47-72.523 72.523c0 40.054 32.47 72.523 72.523 72.523s72.523-32.47 72.523-72.523zM512.031 171.61c-17.528 0-31.744 14.216-31.744 31.684v122.338c0 17.528 14.216 31.744 31.744 31.744s31.684-14.216 31.684-31.744v-122.338c0-17.468-14.155-31.684-31.684-31.684zM716.048 555.128c-17.589 0-31.804 14.276-31.804 31.744v105.833c0 17.528 14.216 31.744 31.804 31.744 17.468 0 31.624-14.276 31.624-31.744v-105.833c0-17.468-14.155-31.744-31.624-31.744zM308.135 544.467c-17.528 0-31.744 14.216-31.744 31.744v116.495c0 17.528 14.276 31.744 31.744 31.744s31.744-14.276 31.744-31.744v-116.555c0-17.468-14.216-31.684-31.744-31.684zM716.048 660.962c-17.589 0-31.804 14.276-31.804 31.744 0 94.931-77.222 172.152-172.152 172.152s-172.152-77.222-172.152-172.152c0-17.528-14.216-31.744-31.744-31.744s-31.804 14.216-31.804 31.744c0 129.928 105.713 235.64 235.64 235.64s235.64-105.713 235.64-235.64c0-17.528-14.155-31.744-31.624-31.744z" />
<glyph unicode="&#xe90e;" glyph-name="mail" d="M865.28 792.244h-706.5c-59.994 0-108.785-48.729-108.785-108.664v-471.1c0-59.934 48.791-108.725 108.785-108.725h706.5c59.935 0 108.726 48.79 108.726 108.725v471.1c-0.001 59.873-48.792 108.664-108.726 108.664zM863.652 731.889l-351.652-284.19-351.708 284.19h703.36zM913.528 212.601c0-26.624-21.684-48.248-48.248-48.248h-706.5c-26.684 0-48.369 21.684-48.369 48.248v471.040c0 3.428 0.366 6.771 1.049 9.998l381.686-308.404c5.181-4.337 11.746-6.626 18.854-6.626s13.733 2.349 19.154 6.687l381.355 308.208c0.665-3.186 1.019-6.484 1.019-9.862v-471.041z" />
<glyph unicode="&#xe90f;" glyph-name="malette-poste" d="M119.776 9.872c-36.192 0-65.632 29.44-65.632 65.664v588.128c0 36.192 29.44 65.632 65.632 65.632h196c7.072 0 12.8 5.728 12.8 12.8v39.2c0 57.792 47.040 104.832 104.832 104.832h156.864c57.888 0 104.928-47.040 104.928-104.832v-39.2c0-7.072 5.76-12.8 12.8-12.8h196c36.256 0 65.824-29.44 65.856-65.632v-588.384c-0.064-36.064-29.6-65.408-65.856-65.408h-784.224zM119.776 401.936c-7.072 0-12.8-5.76-12.8-12.8v-313.856c0-7.072 5.728-12.8 12.8-12.8h784.192c7.072 0 12.8 5.76 12.8 12.8l0.064 313.824c0 3.392-1.376 6.656-3.744 9.056-2.4 2.368-5.664 3.744-9.056 3.744h-274.496c-7.072 0-12.8-5.76-12.8-12.8 0-57.792-47.008-104.736-104.8-104.736-27.872 0-54.144 10.912-74.048 30.688-19.84 19.904-30.784 46.208-30.784 74.080 0 7.072-5.728 12.8-12.8 12.8h-274.528zM511.936 519.568c-28.672 0-51.968-23.328-51.968-51.968l0.032-78.464c0-13.536 5.376-26.528 15.2-36.544 10.144-9.984 23.136-15.392 36.736-15.392 28.672 0 52.032 23.328 52.032 51.968v78.432c0 13.568-5.536 26.624-15.52 36.704-9.792 9.728-23.072 15.264-36.512 15.264zM511.904 572.4c27.84 0 54.112-10.944 74.016-30.784 19.84-20 30.784-46.304 30.784-74.016 0-7.072 5.76-12.8 12.8-12.8l274.496-0.064c3.392 0 6.656 1.344 9.056 3.744 2.368 2.4 3.744 5.664 3.744 9.056v196.128c0 7.072-5.76 12.8-12.8 12.8l-784.224 0.032c-3.392 0-6.656-1.344-9.056-3.744s-3.744-5.664-3.744-9.056v-196.128c0-7.072 5.728-12.8 12.8-12.8h274.496c7.072 0 12.8 5.728 12.8 12.8 0 57.792 47.008 104.832 104.832 104.832zM381.248 742.096c0-7.072 5.728-12.8 12.8-12.8h235.52c7.072 0 12.8 5.728 12.8 12.8v39.2c0 28.672-23.36 51.968-52.096 51.968h-156.992c-28.672 0-52-23.328-52-51.968h-0.032v-39.2z" />
<glyph unicode="&#xe910;" glyph-name="monde" d="M512.051 916.811c-0.018 0-0.034 0.001-0.052 0.001s-0.034-0.001-0.052-0.001c-258.444-0.028-468.758-210.298-468.758-468.81 0-258.53 210.281-468.812 468.811-468.812s468.812 210.281 468.812 468.812c-0.001 258.451-210.254 468.782-468.761 468.81zM912.181 308.194h-150.362c10.734 45.389 16.302 92.209 16.302 139.625 0 47.53-5.603 94.473-16.4 139.987h150.449c15.353-43.793 23.707-90.845 23.707-139.808s-8.351-96.012-23.696-139.804zM542.859 25.242c-2.75-0.199-5.507-0.374-8.271-0.521v238.598h167.251c-31.425-90.406-85.72-172.603-158.98-238.077zM480.962 25.254c-73.21 65.477-127.45 147.661-158.84 238.064h167.289v-238.598c-2.823 0.151-5.639 0.33-8.449 0.534zM88.184 447.999c0 48.963 8.355 96.014 23.706 139.808h150.417c-10.776-45.469-16.367-92.37-16.367-139.866 0-47.442 5.585-94.305 16.35-139.746h-150.417c-15.341 43.791-23.689 90.841-23.689 139.804zM290.937 447.94c0 47.589 6.065 94.539 17.724 139.866h180.75v-279.612h-180.806c-11.621 45.287-17.668 92.195-17.668 139.746zM481.297 870.706c2.698 0.194 5.402 0.367 8.114 0.51v-238.414h-167.163c31.456 90.342 85.766 172.474 159.049 237.904zM542.751 870.703c73.248-65.382 127.563-147.514 159.020-237.901h-167.183v238.414c2.729-0.144 5.45-0.317 8.163-0.513zM534.588 308.194v279.612h180.763c11.65-45.318 17.714-92.268 17.714-139.866 0-47.547-6.056-94.456-17.692-139.746h-180.785zM893.403 632.802h-144.19c-26.508 82.864-70.655 159.771-129.937 225.254 120.68-31.592 220.55-115.175 274.127-225.254zM404.775 858.064c-59.305-65.443-103.468-142.358-129.972-225.262h-144.147c53.579 110.088 153.452 193.675 274.119 225.262zM130.567 263.319h144.174c26.474-82.919 70.602-159.886 129.851-225.402-120.668 31.635-220.501 115.267-274.025 225.402zM619.443 37.925c59.325 65.458 103.476 142.423 129.939 225.394h144.1c-53.533-110.126-153.376-193.752-274.039-225.394z" />
<glyph unicode="&#xe911;" glyph-name="niveau, dernieres-annees-inscription" d="M178.508 245.218c0-39.821-32.281-72.102-72.102-72.102s-72.102 32.281-72.102 72.102c0 39.821 32.281 72.102 72.102 72.102s72.102-32.281 72.102-72.102zM421.859 529.107c0-39.787-32.254-72.041-72.041-72.041s-72.041 32.254-72.041 72.041c0 39.787 32.254 72.041 72.041 72.041s72.041-32.254 72.041-72.041zM705.808 407.431c0-39.787-32.254-72.041-72.041-72.041s-72.041 32.254-72.041 72.041c0 39.787 32.254 72.041 72.041 72.041s72.041-32.254 72.041-72.041zM989.697 650.842c0-39.787-32.254-72.041-72.041-72.041s-72.041 32.254-72.041 72.041c0 39.787 32.254 72.041 72.041 72.041s72.041-32.254 72.041-72.041zM95.564 208.354c-7.831 0-15.36 2.831-21.082 8.011-6.264 5.602-9.999 13.312-10.421 21.624-0.422 8.493 2.409 16.565 8.072 22.889l267.686 297.442c6.024 6.626 14.637 10.421 23.612 10.421 4.397 0 8.674-0.904 12.649-2.65l250.217-111.255 282.383 225.943c5.662 4.518 12.469 6.927 19.637 6.927 9.638 0 18.613-4.277 24.576-11.746 10.903-13.553 8.674-33.431-4.879-44.273l-297.382-237.929c-5.421-4.457-12.408-6.867-19.516-6.867-4.397 0-8.734 0.904-12.83 2.711l-246.784 109.628-252.386-280.456c-5.963-6.626-14.517-10.421-23.552-10.421z" />
<glyph unicode="&#xe912;" glyph-name="panneau" d="M946.416 641.897l-243.657 162.556c-5.911 6.030-14.137 9.777-23.244 9.777h-175.898c0.002 0.201 0.012 0.4 0.011 0.602v91.799c0 18.011-14.576 32.648-32.588 32.648s-32.647-14.638-32.647-32.648v-91.799c0-0.202 0.012-0.401 0.015-0.602h-342.272c-17.95 0-33.069-15.179-33.069-33.069v-332.74c0-17.89 15.119-33.009 33.069-33.009v-0.002h342.256v-426.103c0-18.010 14.638-32.587 32.647-32.587 8.795 0 17.047 3.373 23.19 9.577 6.084 6.203 9.457 14.336 9.397 23.069v426.044h175.947c9.084 0 17.3 3.753 23.204 9.79l243.638 162.425c9.097 6.023 14.518 16.203 14.518 27.166 0.001 10.782-5.42 20.961-14.517 27.106zM668.163 480.706h-539.8v268.228h539.773l201.301-134.144-201.274-134.084z" />
<glyph unicode="&#xe913;" glyph-name="phone" d="M800.767-25.058c-101.376 0-287.744 118.423-463.932 294.731-102.159 102.099-186.729 209.679-238.11 302.863-58.79 106.737-68.006 181.489-27.467 222.088l133.24 118.543c5.662 5.060 12.951 7.891 20.48 7.891 10.541-0.602 18.191-4.397 23.733-10.722l174.020-200.764c8.252-9.517 9.939-23.010 4.337-34.394l-70.234-140.71 249.434-249.495 140.589 70.295c4.277 2.168 9.096 3.313 13.975 3.313 7.409 0 14.637-2.65 20.299-7.529l200.824-173.176c6.325-5.481 10.12-13.071 10.662-21.323 0.663-8.312-2.168-16.504-7.71-22.709l-116.435-132.156c-17.348-17.95-39.575-26.744-67.704-26.744zM114.687 750.050c-11.204-11.565-9.698-59.814 38.611-147.336 48.73-88.245 129.506-190.886 227.569-289.009 179.622-179.561 350.389-276.54 419.9-276.54 7.168 0 16.745 1.084 21.624 5.903l95.112 108.243-161.37 139.144-142.095-71.017c-4.397-2.168-9.216-3.313-14.035-3.313-8.252 0-16.083 3.253-21.926 9.096l-281.178 281.239c-9.457 9.457-11.806 23.913-5.843 35.96l71.078 142.035-139.866 161.19-107.58-95.593z" />
<glyph unicode="&#xe914;" glyph-name="pinmap-location" d="M512.061 412.461c-86.438 0-156.792 70.295-156.792 156.732 0 86.498 70.355 156.853 156.792 156.853s156.792-70.355 156.792-156.853c0-86.438-70.355-156.732-156.792-156.732zM512.061 661.113c-50.658 0-91.919-41.261-91.919-91.919s41.261-91.919 91.919-91.919c50.718 0 92.040 41.201 92.040 91.859 0 50.718-41.321 91.979-92.040 91.979zM512.061-40.448c-7.831 0-15.179 2.711-21.143 7.77-35.057 30.419-342.98 306.236-342.98 603.196 0.060 201.788 163.418 365.929 364.122 365.929s364.002-164.141 364.002-365.929c0-305.694-328.945-591.149-342.92-603.196-5.843-5-13.312-7.77-21.082-7.77zM512.061 871.515c-164.984 0-299.249-135.048-299.249-301.116 0-224.015 204.86-444.356 292.984-528.685l6.264-6.024 6.264 6.024c88.064 84.45 293.045 305.152 293.045 528.685-0.12 166.069-134.445 301.116-299.309 301.116z" />
<glyph unicode="&#xe915;" glyph-name="print" d="M775.531 155.859c-15.782 0-28.612 12.83-28.612 28.612s12.83 28.612 28.612 28.612h121.976v394.541h-771.012v-394.541h121.976c15.782 0 28.612-12.83 28.612-28.612s-12.83-28.612-28.612-28.612h-112.941c-36.503 0-66.259 29.696-66.259 66.259v376.471c0 36.503 29.756 66.259 66.259 66.259h752.941c36.503 0 66.259-29.756 66.259-66.259v-376.471c0-36.503-29.696-66.259-66.259-66.259h-112.941zM248.473 607.624c-15.782 0-28.612 12.83-28.612 28.612v225.882c0 15.782 12.83 28.612 28.612 28.612h527.059c15.782 0 28.612-12.83 28.612-28.612v-225.882c0-15.782-12.83-28.612-28.612-28.612h-527.059zM277.084 664.847h469.835v168.659h-469.835v-168.659zM248.473 5.271c-15.782 0-28.612 12.83-28.612 28.612v338.824c0 15.782 12.83 28.612 28.612 28.612h527.059c15.782 0 28.612-12.83 28.612-28.612v-338.824c0-15.782-12.83-28.612-28.612-28.612h-527.059zM277.084 62.494h469.835v281.66h-469.835v-281.66zM775.531 494.682c-15.782 0-28.612 12.83-28.612 28.612s12.83 28.612 28.612 28.612h37.647c15.782 0 28.612-12.83 28.612-28.612s-12.83-28.612-28.612-28.612h-37.647z" />
<glyph unicode="&#xe916;" glyph-name="salaire" d="M120.019 5c-50.839 0-92.28 41.442-92.28 92.401v536.696c0 50.959 41.442 92.401 92.28 92.401h753.423c34.816 0 52.224 5.060 56.561 16.444 4.698 12.408 16.745 20.721 30.118 20.721 3.855 0 7.71-0.723 11.324-2.108 16.444-6.264 24.817-24.817 18.613-41.382l-1.506-4.156 2.289-3.735c3.373-5.421 5.12-11.625 5.12-17.769v-597.233c0-50.899-41.442-92.28-92.341-92.28h-783.601zM120.019 662.347c-15.24 0-28.13-12.951-28.13-28.25v-536.696c0-15.42 12.89-28.491 28.13-28.491h783.601c15.36 0 28.311 13.071 28.311 28.491v571.573l-11.023-2.47c-18.793-4.156-36.563-4.156-46.14-4.156h-754.748zM139.776 664.817c-17.649 0-32.045 14.336-32.045 31.985v112.339c0 25.419 10.601 48.791 29.094 63.97 14.095 11.565 32.346 17.89 51.26 17.89 5.602 0 11.324-0.542 16.926-1.687l699.573-67.464c67.765-14.818 87.522-65.355 89.088-90.112l-0.060-31.684c0-17.709-14.276-32.105-31.925-32.105s-31.985 14.396-31.985 32.105v29.515c-7.288 19.155-21.745 25.66-32.768 28.491l-701.079 67.885c-3.313 0.602-6.204 0.904-8.252 0.904h-3.554l-6.927-3.674c-3.313-2.65-5.361-7.831-5.361-14.216v-112.158c0-8.493-3.253-16.504-9.216-22.528-6.084-6.084-14.155-9.457-22.769-9.457zM205.915 306.297c-34.274 0-62.163 27.889-62.163 62.283 0 34.214 27.889 62.103 62.163 62.103 34.334 0 62.223-27.829 62.223-62.103 0-34.334-27.889-62.283-62.223-62.283zM205.915 388.518c-11.023 0-19.998-8.975-19.998-20.058 0-10.3 8.553-18.071 19.938-18.071s19.938 7.77 19.938 18.071c0.060 5.301-1.988 10.421-5.783 14.216-3.735 3.735-8.734 5.843-14.095 5.843z" />
<glyph unicode="&#xe917;" glyph-name="success" d="M512.030-32.828c-265.156 0-480.858 215.703-480.858 480.798 0 265.156 215.703 480.858 480.858 480.858 265.096 0 480.798-215.703 480.798-480.858 0-265.096-215.703-480.798-480.798-480.798zM512.030 865.22c-230.039 0-417.25-187.151-417.25-417.25s187.151-417.31 417.25-417.31 417.31 187.211 417.31 417.31-187.272 417.25-417.31 417.25zM471.19 252.928c-7.288 0-14.155 2.349-19.938 6.927l-204.017 163.298c-13.734 10.963-15.902 31.021-5 44.695 6.084 7.59 15.119 11.927 24.877 11.927 7.288 0 14.155-2.409 19.817-6.927l180.405-144.324 265.758 303.767c6.024 6.867 14.637 10.842 23.853 10.842 7.71 0 15.119-2.771 20.962-7.831 6.385-5.602 10.24-13.372 10.842-21.865s-2.168-16.625-7.77-23.010l-285.877-326.656c-6.024-6.927-14.637-10.842-23.913-10.842z" />
<glyph unicode="&#xe918;" glyph-name="user, acces-candidat, acces-employeur" d="M505.103 385.596c-74.029 0-143.661 29.094-195.825 81.92-52.284 52.826-81.137 122.88-81.137 197.512 0 154.142 124.265 279.432 276.962 279.432 74.089 0 143.782-29.094 195.945-81.86 52.164-52.826 81.077-122.88 81.077-197.512 0-154.022-124.326-279.492-277.022-279.492zM505.103 881.633c-118.061 0-214.136-97.16-214.136-216.606s96.075-216.606 214.136-216.606c118.242 0 214.257 97.16 214.257 216.606s-96.015 216.606-214.257 216.606zM915.426-48.46h-806.852l36.683 332.499 170.767 69.030 23.492-58.248-136.072-54.874-24.817-225.581h666.744l-24.696 225.581-136.132 54.874 23.492 58.248 170.827-69.030z" />
<glyph unicode="&#xe919;" glyph-name="users" d="M672.797 400.806c-55.959 0-108.604 22.046-148.058 61.982s-61.259 92.883-61.259 149.323c0 116.495 93.907 211.185 209.318 211.185 56.079 0 108.725-21.986 148.179-61.922 39.394-39.936 61.32-92.883 61.32-149.323-0.060-116.375-94.027-211.245-209.498-211.245zM672.797 775.831c-89.208 0-161.852-73.427-161.852-163.72s72.584-163.78 161.852-163.78c89.389 0 161.973 73.487 161.973 163.78s-72.584 163.72-161.973 163.72zM340.78 448.332c-89.208 0-161.852 73.487-161.852 163.78s72.644 163.72 161.852 163.72c36.503 0 69.572-13.071 96.617-33.852 7.59 13.854 16.384 26.925 26.202 39.213-35.599 26.504-77.643 42.104-122.82 42.104-115.411 0-209.318-94.69-209.318-211.185 0-56.44 21.805-109.387 61.32-149.323 39.394-39.936 92.040-61.982 147.998-61.982 46.2 0 88.004 16.324 122.519 42.165-9.818 12.348-18.492 25.419-25.961 39.153-26.985-20.721-59.994-33.792-96.557-33.792zM93.996 120.23l18.793 170.466 102.822 41.562-17.709 43.972-129.144-52.164-27.708-251.362h272.444l5.24 47.526zM982.949 72.704h-609.943l27.829 251.362 129.024 52.164 17.83-43.972-102.882-41.562-18.793-170.466h503.989l-18.613 170.466-102.942 41.562 17.83 43.972 129.144-52.164z" />
<glyph unicode="&#xe91a;" glyph-name="linkedin" d="M852 960h-680c-94.592 0-172-77.408-172-172v-680c0-94.592 77.408-172 172-172h680c94.592 0 172 77.408 172 172v680c0 94.592-77.408 172-172 172zM384 128h-128v448h128v-448zM320 640c-35.36 0-64 28.64-64 64s28.64 64 64 64 64-28.64 64-64-28.64-64-64-64zM832 128h-128v256c0 35.36-28.64 64-64 64s-64-28.64-64-64v-256h-128v448h128v-79.456c26.4 36.256 66.752 79.456 112 79.456 79.52 0 144-71.648 144-160v-288z" />
<glyph unicode="&#xe91b;" glyph-name="info" d="M512 895.94c247.025 0 447.97-200.945 447.97-447.97 0-246.965-200.945-447.91-447.97-447.91s-447.97 200.945-447.97 447.91c0.060 247.025 201.005 447.97 447.97 447.97zM512 956.175c-280.696 0-508.205-227.509-508.205-508.205s227.509-508.145 508.205-508.145 508.205 227.448 508.205 508.145-227.509 508.205-508.205 508.205v0zM595.366 219.136c5.963-6.024 8.915-13.673 8.915-22.95 0-9.336-3.012-16.926-8.915-22.95-6.024-6.024-13.673-8.975-22.95-8.975h-127.578c-9.336 0-16.926 3.012-22.889 8.975-6.024 6.024-8.975 13.613-8.975 22.95 0 9.276 2.952 16.926 8.975 22.95 5.963 5.963 13.613 8.915 22.889 8.915h31.925v255.217h-31.925c-9.336 0-16.926 2.952-22.889 8.915-6.024 6.024-8.975 13.673-8.975 22.95s2.952 16.986 8.975 22.95c5.963 5.963 13.613 8.915 22.889 8.915h63.789c9.276 0 16.986-3.012 22.95-8.915 6.024-6.024 8.915-13.673 8.915-22.95v-287.081h31.925c9.336 0 16.986-3.012 22.95-8.915zM444.838 674.635c0 17.227 6.264 32.166 18.914 44.875 12.649 12.589 27.588 18.974 44.875 18.974 17.227 0 32.226-6.325 44.875-18.914 12.589-12.77 18.974-27.708 18.974-44.936 0-17.288-6.325-32.226-18.914-44.875-12.71-12.589-27.708-18.974-44.936-18.974-17.288 0-32.226 6.325-44.875 18.914-12.649 12.71-18.914 27.648-18.914 44.936z" />
<glyph unicode="&#xe91c;" glyph-name="disk" d="M73.312-21.232c-16.832 0-30.56 13.728-30.56 30.592v877.312c0 16.832 13.728 30.56 30.56 30.56h638.496c7.84 0 15.52-3.104 21.056-8.512l238.88-229.344c6.048-5.728 9.504-13.728 9.504-22.016v-648c0-16.864-13.728-30.592-30.592-30.592h-877.344zM103.872 39.92h816.224v604.416l-220.576 211.776h-36.832v-311.616c0-16.864-13.728-30.592-30.592-30.592h-385.536c-16.832 0-30.528 13.728-30.528 30.592v311.616h-112.16v-816.192zM277.12 575.056h324.384v281.056h-324.384v-281.056z" />
<glyph unicode="&#xe91d;" glyph-name="filters" d="M1.534 718.797c-1.121 0-2.034 0.913-2.034 2.034v62.978c0 1.121 0.913 2.034 2.034 2.034h562.304c1.121 0 2.034-0.913 2.034-2.034v-62.978c0-1.121-0.913-2.034-2.034-2.034h-562.304zM460.162 413.069c-1.121 0-2.034 0.912-2.034 2.033v62.978c0 1.121 0.913 2.034 2.034 2.034h562.305c1.121 0 2.033-0.913 2.033-2.034v-62.978c0-1.121-0.912-2.033-2.033-2.033h-562.305zM1.535 110.154c-1.122 0-2.034 0.913-2.034 2.034v62.979c0 1.121 0.912 2.034 2.034 2.034h562.305c1.121 0 2.034-0.913 2.034-2.034v-62.979c0-1.121-0.913-2.034-2.034-2.034h-562.305zM290.301 276.784c-1.122 0-2.034 0.913-2.034 2.035v134.25h-285.233c-1.122 0-2.034 0.912-2.034 2.033v62.978c0 1.121 0.912 2.034 2.034 2.034h285.233v134.25c0 1.121 0.912 2.034 2.034 2.034h62.978c1.122 0 2.034-0.913 2.034-2.034v-335.545c0-1.121-0.912-2.034-2.034-2.034h-62.978zM671.205 582.514c-1.121 0-2.034 0.912-2.034 2.034v335.544c0 1.121 0.913 2.034 2.034 2.034h62.979c1.121 0 2.033-0.913 2.033-2.034v-134.25h285.233c1.121 0 2.034-0.913 2.034-2.034v-62.978c0-1.122-0.913-2.034-2.034-2.034h-285.233v-134.25c0-1.122-0.912-2.034-2.033-2.034h-62.979zM671.205-26.127c-1.121 0-2.034 0.912-2.034 2.033v335.545c0 1.121 0.913 2.034 2.034 2.034h62.977c1.121 0 2.034-0.913 2.034-2.034v-134.25h285.233c1.121 0 2.034-0.912 2.034-2.033v-62.979c0-1.121-0.913-2.034-2.034-2.034h-285.233v-134.249c0-1.121-0.913-2.033-2.034-2.033h-62.977z" />
<glyph unicode="&#xe91e;" glyph-name="emploi-store" d="M22.347 670.389c0 56.26 29.274 84.39 87.944 84.39h303.827c27.226 0 46.622-5.783 58.187-17.348s17.348-28.311 17.348-50.176c0-15.962-2.349-30.66-7.108-43.972s-8.614-22.408-11.505-27.106h-300.333v-95.051h231.906c27.226 0 46.622-5.783 58.187-17.348s17.288-28.311 17.288-50.176c0-16.023-2.349-30.66-7.048-43.972-4.759-13.372-8.614-22.408-11.565-27.106h-288.768v-98.605h314.488v-138.662h-462.848v525.131zM971.233 675.087c0-6.867-2.229-13.734-6.927-20.54-4.457-6.807-9.035-11.686-13.613-14.517-5.24 5.12-13.192 11.384-24.034 18.854-10.782 7.409-24.335 14.577-41.020 21.384-16.504 6.867-36.141 12.83-58.729 17.95-22.347 5.18-47.947 7.71-76.439 7.71-114.206 0-171.249-36.503-171.249-109.508 0-17.107 3.373-31.624 9.879-43.61s15.962-22.106 28.19-30.359c12.348-8.252 27.287-15.24 44.936-20.962 17.709-5.722 37.346-10.541 59.031-14.577l101.737-18.854c60.356-11.384 105.352-29.636 134.626-54.754 29.335-25.118 44.032-59.874 44.032-104.267 0-24.456-4.819-47.285-14.577-68.006-9.577-20.962-24.395-38.731-44.393-53.609-20.058-14.818-45.056-26.504-75.234-34.936-30.298-8.674-65.656-12.83-106.135-12.83-31.383 0-60.115 2.229-86.016 6.746-25.961 4.578-49.272 10.36-70.114 17.528-20.902 7.168-38.912 14.577-54.272 22.709-15.42 7.951-28.13 15.42-38.49 22.106l29.033 46.321c8.614-5.722 19.576-12.228 32.949-19.697 13.432-7.349 29.335-14.517 48.008-21.323 18.492-6.927 39.213-12.589 62.404-17.288 23.13-4.457 48.911-6.686 77.342-6.686 54.814 0 97.581 9.156 128.843 27.768 30.961 18.613 46.441 47.526 46.441 86.799 0 19.878-3.674 36.442-11.204 49.634-7.288 13.071-17.408 23.672-30.238 31.503-12.89 8.011-27.889 14.216-44.936 18.854s-35.057 8.553-53.971 12.047l-100.713 17.047c-25.178 3.976-48.61 10.12-70.114 18.432-21.564 8.312-40.358 18.914-56.32 31.744s-28.672 28.19-38.008 46.2c-9.397 17.95-14.155 38.611-14.155 61.982 0 22.227 4.036 43.189 11.927 62.886 8.011 19.697 21.323 37.045 39.816 52.164 18.552 15.179 42.345 27.106 71.861 36.021 29.214 8.794 65.476 13.192 108.122 13.192 31.383 0 58.91-1.807 82.161-5.542s43.008-8.132 58.97-13.252c15.962-5.12 28.792-10.421 38.551-15.842 9.517-5.421 16.625-9.818 21.323-13.312 8.553-6.807 14.035-12.529 16.504-17.107 2.65-4.578 4.216-9.939 4.216-16.203z" />
<glyph unicode="&#xe91f;" glyph-name="ask" d="M512-29.907c-263.529 0-477.907 214.377-477.907 477.907s214.377 477.907 477.907 477.907 477.907-214.377 477.907-477.907-214.377-477.907-477.907-477.907zM512 862.78c-228.713 0-414.78-186.067-414.78-414.78s186.067-414.84 414.78-414.84 414.84 186.127 414.84 414.84-186.127 414.78-414.84 414.78zM511.88 297.412c-16.384 0-29.877 12.168-31.322 28.371-0.361 3.735-7.228 91.437 82.944 164.382 28.19 22.829 38.731 43.851 38.731 77.583 0 52.104-40.478 94.509-90.232 94.509-51.441 0-90.232-38.792-90.232-90.172 0-17.408-14.155-31.563-31.563-31.563-17.348 0-31.443 14.216-31.443 31.624 0 85.896 67.343 153.239 153.239 153.239 84.45 0 153.178-70.716 153.178-157.636 0-52.887-19.095-91.919-62.042-126.615-58.609-47.526-60.055-99.689-59.753-109.688 1.024-17.589-12.107-32.648-29.154-33.852l-2.349-0.181zM506.278 173.448c-17.167 2.952-28.672 19.275-25.781 36.382 2.59 15.36 16.384 27.347 31.383 27.347 13.854-1.928 21.323-6.566 26.142-13.432 4.578-6.445 6.325-14.456 5-22.408-2.952-17.167-16.264-28.431-31.383-28.431-1.747 0.12-3.554 0.301-5.361 0.542z" />
<glyph unicode="&#xe920;" glyph-name="viadeo" horiz-adv-x="900" d="M-0.56 311.808q0-150.528 103.424-263.168t266.24-112.64q161.792 0 265.216 112.64 103.424 110.592 103.424 263.168 0 79.872-27.648 149.504-40.96-25.6-87.040-34.816 22.528-52.224 22.528-116.736 0-77.824-36.864-145.408-37.888-67.584-101.376-103.424-63.488-36.864-138.24-36.864-76.8 0-139.264 36.864-64.512 37.888-100.352 103.424-37.888 66.56-37.888 145.408 0 119.808 81.92 206.848 81.92 84.992 195.584 84.992 52.224 0 100.352-19.456 4.096 39.936 27.648 88.064-58.368 21.504-128 21.504-163.84 0-272.384-120.832-97.28-109.568-97.28-259.072zM286.16 52.736l57.344-4.096q75.776 48.128 127.488 111.616t74.24 126.976 31.744 129.024q6.144 41.984 6.144 81.92 0 21.504-2.048 40.96-5.12 56.32-12.8 100.864t-15.872 70.144l-9.216 25.6q-22.528 69.632-44.544 121.856t-32.256 68.608l-11.264 17.408q39.936-20.48 64.512-49.152 23.552-29.696 28.672-54.272 4.096-20.48 4.096-39.936v-7.168q-1.024-22.528-6.144-35.84l-5.12-13.312q4.096-59.392 5.12-114.688 0-53.248-5.12-104.448-9.216-102.4-31.232-171.008t-50.688-124.416-58.88-87.552-55.808-52.736-41.984-29.184zM567.76 705.024q4.096 40.96 23.552 65.536l18.432 25.6q12.288 14.336 39.936 27.136t49.152 18.944l21.504 6.144q36.864 8.192 68.096 35.84t44.544 52.224l13.312 23.552q41.984-58.368 50.176-132.096 4.096-32.768 3.072-58.368 0-34.816-6.144-60.416l-11.264-46.080q-12.288-33.792-34.304-61.44t-37.376-37.888l-15.36-11.264q-34.816-20.48-68.608-20.48l-111.616 54.272q59.392 32.768 103.424 66.56t65.024 58.88 33.792 45.568 14.848 31.744l2.048 10.24q-18.432-40.96-49.664-74.752t-63.488-53.248-61.952-33.28-48.128-18.944l-18.432-5.12q-25.6 45.056-25.6 80.896 0 5.12 1.024 10.24z" />
<glyph unicode="&#xe921;" glyph-name="mouse" d="M722.855 687.405c-49.032 54.031-110.050 84.751-182.935 92.22-1.928 67.945-20.661 115.592-55.055 145.288-12.77 11.023-26.744 19.275-42.647 23.733-15.782 4.518-28.19 6.987-36.623 6.505-8.433-0.542-13.914-1.024-15.902-1.988-15.36-1.988-24.757-15.962-22.347-31.262 2.53-15.36 16.926-24.275 31.262-22.287h0.964c5.542 0 29.636 2.771 50.176-15.36 21.564-19.034 33.19-54.513 35.177-104.629-142.758-9.879-257.807-139.264-257.807-283.046v-271.179c0-78.426 27.528-146.010 83.305-202.21 54.814-55.296 121.976-82.824 200.764-82.824h1.506c77.342 0 150.408 32.467 200.764 83.305 50.839 51.441 83.426 124.326 83.426 201.909v271.059c-0.12 72.824-24.998 136.794-74.029 190.765zM741.648 225.401c0-124.024-104.508-232.147-229.015-230.46-62.946 0.843-117.519 22.709-162.635 67.885-45.116 45.056-67.885 99.629-67.885 162.575v271.179c0 61.018 20.902 113.905 62.886 158.118 42.285 44.514 93.124 71.319 154.202 71.319h30.298c59.573 0 109.568-29.214 150.648-73.306 41.201-44.092 61.5-96.196 61.5-156.13v-271.179zM520.585 648.734h-16.324c-18.372 0-33.611-6.505-46.562-19.336-12.83-12.529-19.456-28.25-19.456-46.622v-114.989c0-17.408 6.505-32.708 19.396-45.598 12.83-12.89 28.19-19.336 46.562-19.336h16.324c17.83 0 33.25 6.385 45.478 18.854 13.071 12.89 19.396 28.25 19.396 46.14v114.929c0 18.312-6.445 33.611-19.396 46.622-12.228 12.83-27.588 19.336-45.417 19.336zM530.524 467.787c0-5.542-4.457-9.939-9.939-9.939h-16.324c-1.506 0-3.976 1.024-7.951 3.012-1.988 2.048-3.012 4.457-3.012 6.927v114.989c0 5.963 4.939 9.939 10.903 9.939h16.324c5.481 0 9.939-3.915 9.939-9.939l0.060-114.989z" />
<glyph unicode="&#xe922;" glyph-name="google-plus" d="M559.066 880.592c0 0-200.956 0-267.94 0-120.12 0-233.17-91.006-233.17-196.422 0-107.726 81.882-194.666 204.088-194.666 8.498 0 16.756 0.17 24.842 0.752-7.93-15.186-13.602-32.288-13.602-50.042 0-29.938 16.104-54.21 36.468-74.024-15.386 0-30.242-0.448-46.452-0.448-148.782 0.002-263.3-94.758-263.3-193.020 0-96.778 125.542-157.314 274.334-157.314 169.624 0 263.306 96.244 263.306 193.028 0 77.6-22.896 124.072-93.686 174.134-24.216 17.144-70.53 58.836-70.53 83.344 0 28.72 8.196 42.868 51.428 76.646 44.312 34.624 75.672 83.302 75.672 139.916 0 67.406-30.020 133.098-86.372 154.772h84.954l59.96 43.344zM465.48 225.134c2.126-8.972 3.284-18.206 3.284-27.628 0-78.2-50.392-139.31-194.974-139.31-102.842 0-177.116 65.104-177.116 143.3 0 76.642 92.126 140.444 194.964 139.332 24-0.254 46.368-4.116 66.67-10.69 55.826-38.826 95.876-60.762 107.172-105.004zM300.818 516.816c-69.038 2.064-134.636 77.226-146.552 167.86-11.916 90.666 34.37 160.042 103.388 157.99 69.010-2.074 134.638-74.814 146.558-165.458 11.906-90.66-34.39-162.458-103.394-160.392zM832 688.592v192h-64v-192h-192v-64h192v-192h64v192h192v64z" />
<glyph unicode="&#xe923;" glyph-name="facebook" d="M576 864c-88.366 0-160-71.634-160-160v-96h-128v-128h128v-448h128v448h144l32 128h-176v96c0 17.672 14.326 32 32 32h160v128h-160z" />
<glyph unicode="&#xe924;" glyph-name="twitter" d="M1024.002 765.581c-37.676-16.708-78.164-28.002-120.66-33.080 43.372 26 76.686 67.17 92.372 116.23-40.596-24.078-85.556-41.56-133.41-50.98-38.32 40.83-92.922 66.34-153.346 66.34-116.022 0-210.088-94.058-210.088-210.078 0-16.466 1.858-32.5 5.44-47.878-174.6 8.764-329.402 92.4-433.018 219.506-18.084-31.028-28.446-67.116-28.446-105.618 0-72.888 37.088-137.192 93.46-174.866-34.438 1.092-66.832 10.542-95.154 26.278-0.020-0.876-0.020-1.756-0.020-2.642 0-101.788 72.418-186.696 168.522-206-17.626-4.8-36.188-7.372-55.348-7.372-13.538 0-26.698 1.32-39.528 3.772 26.736-83.46 104.32-144.206 196.252-145.896-71.9-56.35-162.486-89.934-260.916-89.934-16.958 0-33.68 0.994-50.116 2.94 92.972-59.61 203.402-94.394 322.042-94.394 386.422 0 597.736 320.124 597.736 597.744 0 9.108-0.206 18.168-0.61 27.18 41.056 29.62 76.672 66.62 104.836 108.748z" />
<glyph unicode="&#xe925;" glyph-name="close" d="M572.811 445.901l236.174 236.174c16.793 16.792 16.793 44.019 0 60.812-16.791 16.792-44.020 16.792-60.811 0l-236.174-236.175-236.173 236.174c-16.793 16.792-44.019 16.792-60.812 0s-16.792-44.019 0-60.812l236.174-236.173-236.173-236.174c-16.792-16.792-16.792-44.019 0-60.811 8.396-8.396 19.401-12.595 30.406-12.595s22.009 4.198 30.406 12.595l236.173 236.174 236.174-236.173c8.396-8.396 19.4-12.595 30.405-12.595s22.010 4.198 30.405 12.595c16.793 16.792 16.793 44.019 0 60.811l-236.174 236.173z" />
<glyph unicode="&#xe926;" glyph-name="more-hor-m" d="M256 533.333c-46.933 0-85.333-38.4-85.333-85.333s38.4-85.333 85.333-85.333 85.333 38.4 85.333 85.333-38.4 85.333-85.333 85.333zM768 533.333c-46.933 0-85.333-38.4-85.333-85.333s38.4-85.333 85.333-85.333 85.333 38.4 85.333 85.333-38.4 85.333-85.333 85.333zM512 533.333c-46.933 0-85.333-38.4-85.333-85.333s38.4-85.333 85.333-85.333 85.333 38.4 85.333 85.333-38.4 85.333-85.333 85.333z" />
<glyph unicode="&#xe927;" glyph-name="plus-m" d="M780.487 491h-225.487v225.487c0 23.748-19.252 43-43 43s-43-19.252-43-43v-225.486h-225.486c-23.748 0-43-19.252-43-43s19.252-43 43-43h225.486v-225.487c0-23.748 19.252-43 43-43s43 19.252 43 43v225.486h225.486c23.748 0 43 19.252 43 43s-19.251 43-42.999 43z" />
<glyph unicode="&#xe928;" glyph-name="more-ver-m" d="M512 618.667c46.933 0 85.333 38.4 85.333 85.333s-38.4 85.333-85.333 85.333-85.333-38.4-85.333-85.333 38.4-85.333 85.333-85.333zM512 533.333c-46.933 0-85.333-38.4-85.333-85.333s38.4-85.333 85.333-85.333 85.333 38.4 85.333 85.333-38.4 85.333-85.333 85.333zM512 277.333c-46.933 0-85.333-38.4-85.333-85.333s38.4-85.333 85.333-85.333 85.333 38.4 85.333 85.333-38.4 85.333-85.333 85.333z" />
<glyph unicode="&#xe929;" glyph-name="home-full" d="M973.433 432.882l-432.43 491.52c-14.878 16.866-43.067 16.866-57.945 0l-432.489-491.52c-14.698-16.625-13.614-42.586 2.409-57.826 16.022-15.3 40.9-14.155 55.597 2.53l10.301 11.707v-352.699c0-45.116 35.298-81.86 78.667-81.86h157.215c21.745 0 39.334 18.252 39.334 40.9 0 0.017-0.001 0.033-0.001 0.050 0 0.003 0 0.007 0 0.010v286.72h235.881v-286.721c0-22.647 17.588-40.96 39.272-40.96h157.333c43.311 0 78.547 36.744 78.487 81.86v352.96l10.481-11.908c7.71-8.854 18.251-13.372 28.974-13.372 9.396 0 18.974 3.554 26.563 10.782 15.964 15.18 17.048 41.202 2.351 57.827z" />
<glyph unicode="&#xe92a;" glyph-name="accessibility" d="M512 734.385c28.895 0 54.669 11.123 76.595 33.051 21.941 21.889 33.069 47.666 33.069 76.611 0 28.919-11.168 54.346-33.2 75.584-21.92 21.077-47.646 31.764-76.464 31.764s-54.544-10.687-76.472-31.771c-22.023-21.229-33.191-46.656-33.191-75.575 0-28.946 11.126-54.722 33.060-76.604 21.935-21.936 47.707-33.060 76.603-33.060zM956.687 705.891h-889.374c-5.562 0-10.071-4.51-10.071-10.072v-99.591c0-5.562 4.51-10.071 10.071-10.071h286.387v-631.479c0-5.563 4.51-10.072 10.072-10.072h99.591c5.563 0 10.072 4.509 10.072 10.072v286.386h77.13v-286.386c0-5.563 4.509-10.072 10.070-10.072h99.593c5.562 0 10.071 4.509 10.071 10.072v631.478h286.387c5.563 0 10.072 4.509 10.072 10.071v99.591c0.001 5.563-4.508 10.073-10.071 10.073z" />
<glyph unicode="&#xe92b;" glyph-name="star, selection-offres" d="M809.201-29.847c-9.577 0-19.456 3.433-29.395 10.12l-262.746 179.682-8.493-0.422-264.252-179.2c-9.517-6.505-19.757-9.939-29.696-9.939-12.228 0-22.829 5.12-29.877 14.456-5.843 7.71-11.505 21.263-5.602 42.225l78.487 277.685c1.265 6.264-1.205 16.023-4.819 20.36l-202.752 206.426c-14.336 14.577-19.336 33.069-13.372 49.393 5.963 16.264 21.624 27.046 41.984 28.853l267.686 24.998c6.385 1.325 14.095 7.168 16.625 11.927l107.881 248.471c8.252 19.215 23.612 30.66 41.141 30.66 17.589 0 32.949-11.505 41.261-30.78l107.52-247.928c2.831-5.421 10.722-11.144 16.324-12.168l268.288-25.058c20.36-1.928 36.081-12.83 41.984-29.094s0.904-34.696-13.493-49.272l-202.27-205.824c-4.337-5-6.385-14.878-5.481-19.998l78.728-278.528c5.963-20.962 0.301-34.515-5.481-42.225-7.228-9.397-18.251-14.818-30.178-14.818zM421.045 622.020c-11.384-26.263-40.358-47.285-68.789-49.875l-232.207-21.805 177.272-180.465c19.697-19.938 28.732-55.356 21.022-82.342l-63.187-223.292 213.655 146.071c11.746 8.312 27.046 12.77 43.068 12.77 15.902 0 31.262-4.457 43.249-12.649l213.594-146.010-63.127 223.413c-7.891 26.744 1.205 62.103 21.022 82.281l177.333 180.344-232.328 21.685c-28.491 2.65-57.404 23.672-68.789 49.935l-90.955 209.559-90.835-209.619z" />
<glyph unicode="&#xe92c;" glyph-name="user-full" d="M878.211 284.328l-244.94 133.258c88.102 46.716 148.354 139.974 148.354 247.047 0 74.539-28.832 144.441-80.914 197.168-52.078 52.697-121.598 81.734-195.582 81.734-152.367 0-276.434-125.066-276.434-278.902 0-74.512 28.77-144.385 80.938-197.111 21.997-22.256 47.099-40.277 74.312-53.695l-237.984-129.499-36.637-331.863h805.352l-36.465 331.863z" />
<glyph unicode="&#xe92d;" glyph-name="star-full" d="M995.413 530.891c17.379 17.645 23.35 40.279 15.988 60.543-7.4 20.262-26.498 33.777-51.279 36.148l-276.033 25.723c-2.902 0.553-8.627 4.662-9.977 7.074l-111.068 255.913c-10.018 23.412-29.116 37.398-51.036 37.398-21.857 0-40.934-13.926-51.055-37.234l-110.945-255.811c-1.43-2.596-7.156-6.787-9.773-7.299l-276.277-25.843c-24.678-2.25-43.857-15.703-51.279-35.967-7.443-20.283-1.473-42.959 15.906-60.645l208.723-212.32c1.963-2.371 3.803-9.568 3.23-12.514l-81.053-286.664c-7.156-25.354-0.020-42.119 7.238-51.73 16.133-21.305 47.029-25.354 74.203-6.828l267.914 183.326 5.664 0.367 268.629-183.734c11.777-8.016 23.76-12.105 35.578-12.105 15.375 0 29.443 6.912 38.562 18.975 7.279 9.611 14.436 26.377 7.238 51.73l-81.010 286.582c-0.615 3.027 1.227 10.225 3.107 12.473l208.805 212.442z" />
<glyph unicode="&#xe92e;" glyph-name="corbel" d="M898.283 891.32v-111.479h-772.566v111.479h191.847l57.034 54.442h274.805l57.037-54.442h191.843zM180.159 61.714v663.684h663.683v-663.684c0-29.433-11.234-55.359-33.702-77.776-22.47-22.467-48.394-33.701-77.775-33.701h-440.729c-29.381 0-55.306 11.234-77.775 33.701-22.467 22.417-33.702 48.343-33.702 77.776z" />
<glyph unicode="&#xe92f;" glyph-name="download, transmission-suivi-document" d="M97.696-36.576c-38.656 0-70.080 31.392-70.080 70.016v497.6c0 38.624 31.424 70.048 70.080 70.048h207.168c15.808 0 28.672-12.832 28.672-28.64s-12.864-28.672-28.672-28.672h-207.168c-7.072 0-12.8-5.728-12.8-12.8v-497.6c0-7.072 5.728-12.8 12.8-12.8h828.672c7.072 0 12.8 5.76 12.8 12.8v497.6c0 7.072-5.76 12.8-12.8 12.8h-207.168c-15.776 0-28.64 12.864-28.64 28.672s12.832 28.64 28.64 28.64h207.168c38.624 0 70.016-31.424 70.016-70.048v-497.6c0-38.624-31.392-70.016-70.016-70.016h-828.672zM508.832 212.576c0 0-4.928 0.992-5.472 1.152-0.64 0.256-2.496 0.96-2.912 1.088-0.928 0.736-1.824 0.992-2.912 1.44-0.032 0.032-3.584 2.464-4.288 2.848 0.032-0.032 0.064-0.032 0.096-0.032 0.256 0-0.768 0.928-1.728 1.92l-165.568 165.568c-5.408 5.408-8.416 12.608-8.416 20.256 0 7.616 2.976 14.816 8.416 20.224 0.256 0.288 0.544 0.576 0.768 0.832 5.312 4.896 12.128 7.552 19.36 7.552 7.648 0 14.816-2.976 20.256-8.416l95.008-95.008c2.464-2.432 5.728-3.744 9.056-3.744 1.664 0 3.328 0.352 4.896 0.992 4.768 1.984 7.904 6.624 7.904 11.808v562.88c0 15.808 12.832 28.64 28.64 28.64s28.64-12.832 28.64-28.64v-562.88c0-5.184 3.136-9.856 7.904-11.808 1.6-0.672 3.264-0.992 4.896-0.992 3.328 0 6.592 1.312 9.056 3.744l95.008 95.008c5.408 5.408 12.608 8.416 20.256 8.416 7.616 0 14.816-2.976 20.224-8.416 5.44-5.408 8.448-12.608 8.448-20.224 0-7.648-3.008-14.848-8.416-20.256l-165.568-165.536-2.56-2.336c-0.192-0.128-2.464-1.76-2.656-1.888l-3.328-1.856c-0.672-0.16-2.624-0.96-3.264-1.248-1.024 0-2.496-0.608-3.488-0.832-0.384 0-5.088-0.48-5.088-0.48l-3.168 0.224z" />
<glyph unicode="&#xe930;" glyph-name="eye-full" d="M963.675 447.127c0-1.747 0-4.397 0-7.951v-3.494c-1.205 0-1.747-0.602-1.747-1.747 0-1.205 0-2.409 0-3.554-41.201-91.799-102.34-163.539-183.537-215.341s-169.984-77.643-266.421-77.643c-96.497 0-185.284 25.901-266.421 77.643s-142.336 124.145-183.537 217.088v1.747c0 1.144-0.602 1.747-1.747 1.747v3.554c0 3.554 0 6.204 0 7.951s0 4.397 0 7.951v3.494c1.144 0 1.747 0.602 1.747 1.747s0 2.349 0 3.554c41.201 91.738 102.641 163.84 184.44 216.184 81.739 52.344 170.827 78.547 267.324 78.547 96.437 0 185.043-26.202 265.638-78.547s141.432-125.048 182.573-217.931v-3.554c1.205 0 1.747-1.205 1.747-3.554-0.060-3.494-0.060-6.144-0.060-7.891zM907.234 446.224c-37.647 82.342-91.738 145.589-162.334 189.681s-147.637 66.199-231.123 66.199c-83.546 0-161.19-22.046-232.93-66.199-71.74-44.092-126.494-106.737-164.141-187.934 37.647-82.402 92.040-145.348 163.238-188.838 71.198-43.55 148.48-65.295 232.026-65.295 83.486 0 160.888 21.745 232.087 65.295s125.53 105.894 163.177 187.091zM684.846 447.127c0-46.502-16.685-86.438-50.236-119.989s-73.547-50.357-119.989-50.357c-46.502 0-86.257 16.806-119.145 50.357-32.949 33.551-49.393 73.487-49.393 119.989 0 46.441 16.444 86.197 49.393 119.145 32.888 32.888 72.644 49.393 119.145 49.393 46.441 0 86.438-16.504 119.989-49.393 33.551-32.949 50.236-72.704 50.236-119.145zM626.658 447.127c0 31.142-11.204 57.946-33.551 80.294s-48.851 33.551-79.39 33.551c-30.6 0-57.043-11.204-79.39-33.551s-33.491-48.851-33.491-79.39c0-30.6 11.144-57.344 33.491-80.294s49.092-34.455 80.354-34.455c31.142 0 57.645 11.204 79.39 33.551s32.587 49.152 32.587 80.294z" />
<glyph unicode="&#xe931;" glyph-name="folder-full" d="M923.25 776.999h-398.802l-112.586 75.058c-4.584 3.145-9.838 5.379-15.504 6.457-0.049 0.009-0.099 0.017-0.147 0.026-0.594 0.111-1.19 0.211-1.792 0.295-0.103 0.015-0.205 0.025-0.308 0.040-0.549 0.073-1.1 0.14-1.656 0.191-0.148 0.014-0.298 0.022-0.447 0.034-0.516 0.042-1.034 0.081-1.556 0.104-0.151 0.006-0.303 0.006-0.454 0.011-0.457 0.015-0.912 0.035-1.372 0.035h-287.876c-45.363 0-82.25-36.908-82.25-82.25v-658c0-45.342 36.887-82.25 82.25-82.25h822.5c45.342 0 82.25 36.908 82.25 82.25v575.749c0 45.342-36.908 82.25-82.25 82.25z" />
<glyph unicode="&#xe932;" glyph-name="eye-full-full" d="M512.002 573.575c-69.248 0-125.574-56.331-125.574-125.577 0-69.243 56.326-125.572 125.574-125.572 69.243 0 125.573 56.329 125.573 125.572 0 69.246-56.33 125.577-125.573 125.577zM512.002 824.723c-326.283 0-502.3-267.398-502.3-376.725 0-109.321 176.017-376.722 502.3-376.722 326.278 0 502.296 267.399 502.296 376.722 0 109.326-176.017 376.725-502.296 376.725zM512.002 238.709c-115.397 0-209.29 93.896-209.29 209.289 0 115.397 93.893 209.293 209.29 209.293 115.394 0 209.289-93.896 209.289-209.293 0-115.393-93.895-209.289-209.289-209.289z" />
<glyph unicode="&#xe933;" glyph-name="mail-full" d="M890.406 826.405h-756.812c-69.552 0-126.135-56.58-126.135-126.135v-504.54c0-69.556 56.583-126.135 126.135-126.135h756.812c69.552 0 126.136 56.579 126.136 126.135v504.54c-0.001 69.556-56.585 126.135-126.136 126.135zM970.143 722.176l-431.7-348.925c-7.72-6.22-17.080-9.34-26.439-9.34-9.364 0-18.725 3.12-26.445 9.34l-431.7 348.925c-18.064 14.596-20.855 41.081-6.239 59.125 14.574 18.045 41.020 20.88 59.125 6.281l405.26-327.572 405.256 327.572c18.146 14.599 44.591 11.764 59.125-6.281 14.612-18.045 11.821-44.53-6.243-59.125z" />
<glyph unicode="&#xe934;" glyph-name="paper-plane" d="M531.488-36.864c-10.976 0.128-21.12 6.752-25.696 16.896l-148.032 328.864c-1.152 2.528-3.072 4.64-5.472 5.952l-310.304 171.648c-9.504 5.248-15.296 15.648-14.752 26.496 0.576 10.976 7.2 20.544 17.312 24.896l912.416 392.64c3.616 1.568 7.424 2.368 11.328 2.368 5.76 0 11.296-1.728 16-4.928 0.416-0.384 3.264-2.592 3.712-2.912 0.256-0.32 2.816-3.2 3.104-3.456 0.128-0.192 2.752-4.64 3.232-5.28 0.256-0.672 1.28-3.52 1.664-4.16 0-0.064 0.512-3.168 0.544-3.264 0.768-4.512 0.416-9.376-1.12-13.984-0.16-0.352-1.152-2.656-1.568-3.68l-436.032-911.84c-4.672-9.92-14.848-16.288-25.856-16.288h-0.48zM831.264 726.752c-3.232 0-6.432-1.216-8.896-3.584l-403.328-390.304c-3.872-3.744-4.992-9.536-2.752-14.432l105.088-233.44c2.048-4.576 6.56-7.488 11.52-7.552 0.064 0 0.096 0 0.16 0 4.928 0 9.408 2.848 11.552 7.296l298.208 623.712c2.656 5.568 0.928 12.288-4.096 15.904-2.24 1.6-4.832 2.4-7.456 2.4zM776.64 789.44c-1.728 0-3.424-0.32-5.024-1.024l-626.848-269.76c-4.48-1.92-7.488-6.24-7.712-11.136-0.256-4.864 2.304-9.472 6.592-11.84l221.536-122.528c1.952-1.088 4.064-1.632 6.176-1.632 3.232 0 6.464 1.248 8.896 3.616l405.408 392.288c3.008 2.88 4.384 7.072 3.744 11.168-0.672 4.096-3.264 7.648-6.976 9.504-1.792 0.896-3.776 1.344-5.792 1.344z" />
<glyph unicode="&#xe935;" glyph-name="relance" d="M1004.521 542.002l-418.697 334.958c-12.594 10.061-29.89 12.022-44.323 5.051-14.476-6.972-23.714-21.651-23.714-37.741v-172.987c-76.451-6.417-239.045-35.31-360.188-160.967-106.025-109.91-153.822-266.021-142.171-464.025 1.308-22.223 19.709-39.273 41.749-39.273 0.692 0 1.387 0.021 2.085 0.042 22.937 1.123 40.682 20.648 39.785 43.607-0.167 3.804-2.783 93.963 73.558 173.324 71.426 74.308 187.433 114.893 345.181 120.885v-170.522c0-16.090 9.238-30.768 23.714-37.738 5.808-2.761 11.979-4.132 18.155-4.132 9.32 0 18.6 3.128 26.168 9.181l418.697 334.958c9.936 7.934 15.701 19.975 15.701 32.689 0.001 12.716-5.765 24.758-15.7 32.69zM163.077 326.278l0.002 0.001c-0.001-0.001-0.002-0.002-0.004-0.003l0.002 0.002z" />
<glyph unicode="&#xe936;" glyph-name="siret" d="M762.608 586.096c-62.016 0-112.448 50.464-112.448 112.48s50.432 112.48 112.448 112.48c62.048 0 112.544-50.464 112.544-112.48s-50.464-112.48-112.544-112.48zM762.608 753.168c-30.080 0-54.56-24.48-54.56-54.56s24.48-54.56 54.56-54.56 54.592 24.48 54.592 54.56c0 30.080-24.48 54.56-54.592 54.56zM470.288-40.368c-18.976 0-36.704 7.36-50.016 20.672l-375.968 375.968c-13.344 13.28-20.672 31.072-20.672 49.984s7.328 36.672 20.672 49.984l459.872 442.528c21.504 21.504 60.704 37.6 91.36 37.6h334.112c39.008 0 70.72-31.744 70.72-70.72v-334.112c0-30.656-16.352-70.080-38.016-91.776l-441.632-459.072c-13.76-13.696-31.264-21.056-50.432-21.056zM595.6 878.448c-15.328 0-40-10.208-50.816-21.024l-459.872-442.528c-2.496-2.368-3.904-5.664-3.936-9.088-0.032-3.456 1.344-6.752 3.776-9.184l376.544-375.296c2.4-2.4 5.632-3.744 9.024-3.744s6.784 1.408 9.184 3.776l441.568 458.976c11.136 11.136 21.44 35.648 21.44 51.2v334.112c0 7.072-5.76 12.8-12.8 12.8h-334.112z" />
<glyph unicode="&#xe937;" glyph-name="tete" d="M511.999 955.479c-280.272 0-507.479-227.207-507.479-507.48s227.207-507.479 507.479-507.479 507.48 227.206 507.48 507.479c0 280.273-227.207 507.48-507.48 507.48zM511.999 808.271c82.88 0 150.068-67.188 150.068-150.068s-67.188-150.068-150.068-150.068c-82.881 0-150.068 67.188-150.068 150.068s67.187 150.068 150.068 150.068zM511.999 100.994c-160.555 0-282.939 120.312-302.836 182.66 56.891 72.156 163.059 138.319 302.836 138.319 144.575 0 266.842-61.761 307.118-146.701-28.756-70.128-146.564-174.278-307.118-174.278z" />
<glyph unicode="&#xe938;" glyph-name="cron, mon-compte" d="M512.016 250.72c-108.48 0-196.736 88.256-196.736 196.736s88.256 196.736 196.736 196.736c108.512 0 196.736-88.256 196.736-196.736s-88.256-196.736-196.736-196.736zM512.016 585.984c-76.384 0-138.528-62.144-138.528-138.528s62.144-138.56 138.528-138.56c76.416 0 138.56 62.144 138.56 138.56s-62.176 138.528-138.56 138.528zM450.544-41.984c-14.592 0-26.976 10.912-28.864 25.376l-12.224 94.784c-0.64 4.992-4.128 9.12-8.928 10.592-21.408 6.592-42.496 15.296-62.656 25.824-1.856 0.96-3.904 1.472-5.92 1.472-2.72 0-5.44-0.864-7.712-2.592l-76.736-57.92c-5.12-3.872-11.2-5.92-17.568-5.92-7.712 0-14.976 3.008-20.448 8.448l-85.376 84.704c-10.304 10.176-11.552 26.080-3.008 37.856l56.96 78.048c2.88 3.936 3.264 9.184 0.96 13.536-11.072 20.832-20.128 42.656-26.976 64.832-1.472 4.8-5.664 8.32-10.656 8.896l-93.984 11.712c-14.528 1.856-25.504 14.24-25.504 28.896v122.944c0 14.624 10.944 27.040 25.44 28.864l94.72 12c4.96 0.64 9.12 4.096 10.624 8.864 6.88 22.016 15.936 43.584 26.912 64.096 2.4 4.48 1.92 9.92-1.216 13.92l-58.592 74.912c-9.024 11.552-8.064 28.064 2.272 38.464l84.768 85.312c5.504 5.536 12.832 8.608 20.64 8.608 6.432 0 12.512-2.048 17.664-5.952l77.024-58.592c2.272-1.728 4.992-2.624 7.744-2.624 2.048 0 4.096 0.48 5.984 1.472 20.608 10.912 42.24 19.904 64.288 26.688 4.768 1.472 8.256 5.6 8.896 10.592l12.576 96.608c1.888 14.464 14.304 25.344 28.864 25.344h122.976c14.688 0 27.104-11.008 28.832-25.568l11.744-96.16c0.64-4.992 4.128-9.184 8.928-10.656 21.312-6.624 42.176-15.232 62.016-25.536 1.856-0.992 3.872-1.44 5.92-1.44 2.752 0 5.472 0.864 7.744 2.624l77.792 59.168c5.088 3.872 11.2 5.952 17.6 5.952 7.744 0 15.040-3.008 20.512-8.448l85.376-84.736c10.304-10.208 11.488-26.624 2.784-38.176l-58.112-77.216c-3.008-4-3.392-9.344-1.056-13.76 10.976-20.48 20.096-42.144 27.136-64.416 1.504-4.736 5.632-8.192 10.56-8.832l95.52-12.512c14.432-1.92 25.312-14.336 25.312-28.896v-122.944c0-14.592-10.88-26.976-25.28-28.832l-95.008-12.48c-4.96-0.672-9.088-4.128-10.56-8.896-6.624-21.408-15.36-42.528-26.048-62.816-2.304-4.448-1.856-9.792 1.152-13.728l58.112-76.192c8.768-11.52 7.712-27.968-2.464-38.24l-84.704-85.28c-5.472-5.536-12.8-8.576-20.64-8.576-6.24 0-12.256 1.952-17.344 5.664l-78.016 57.376c-2.24 1.664-4.896 2.496-7.584 2.496-2.048 0-4.096-0.512-6.016-1.504-20.416-10.816-41.888-19.744-63.776-26.528-4.768-1.472-8.256-5.6-8.896-10.528l-12.64-95.296c-1.952-14.4-14.336-25.248-28.864-25.248h-122.976zM328.72 182.496c5.44 0 10.752-1.536 15.36-4.416 30.016-18.72 62.656-32.128 97.024-39.904 11.872-2.72 20.896-12.64 22.464-24.672l11.104-86.016c0-7.104 5.632-11.296 12.672-11.296h49.408c6.4 0 11.84 4.768 12.672 11.136l11.456 86.528c1.6 11.968 10.592 21.824 22.368 24.544 34.688 7.968 67.52 21.632 97.664 40.576 4.64 2.88 9.984 4.416 15.424 4.416 6.272 0 12.256-1.952 17.312-5.664l71.008-52.192c2.272-1.664 4.928-2.496 7.584-2.496 3.328 0 6.592 1.28 9.056 3.776l33.568 33.76c4.544 4.544 4.992 11.712 1.12 16.768l-52.864 69.312c-7.328 9.6-7.904 22.912-1.536 33.152 18.944 30.176 32.48 62.912 40.224 97.248 2.656 11.808 12.544 20.8 24.608 22.368l86.24 11.328c6.368 0.832 11.168 6.24 11.168 12.672v49.344c0 6.432-4.768 11.872-11.168 12.672l-86.688 11.328c-11.968 1.568-21.856 10.528-24.576 22.272-8.16 34.976-22.080 68.064-41.472 98.336-6.528 10.208-6.016 23.552 1.248 33.216l52.96 70.336c3.84 5.12 3.328 12.288-1.184 16.768l-33.568 33.312c-2.496 2.464-5.76 3.712-9.024 3.712-2.72 0-5.44-0.864-7.744-2.624l-70.72-53.824c-5.024-3.84-11.296-5.952-17.632-5.952-5.408 0-10.688 1.504-15.328 4.352-30.144 18.656-62.72 32-96.8 39.712-11.936 2.688-20.96 12.704-22.432 24.864l-10.688 87.424c-0.8 6.432-6.24 11.264-12.704 11.264h-49.024c-6.432 0-11.872-4.768-12.672-11.136l-11.424-87.872c-1.568-12.032-10.592-21.952-22.4-24.64-34.912-7.968-68.064-21.728-98.56-40.864-4.672-2.976-9.984-4.512-15.456-4.512-6.336 0-12.608 2.112-17.632 5.952l-70.016 53.28c-2.272 1.76-5.024 2.624-7.744 2.624-3.328 0-6.592-1.28-9.088-3.776l-32.832-33.056c-4.544-4.576-4.992-11.84-0.992-16.928l53.312-68.192c7.616-9.696 8.256-23.2 1.632-33.568-19.424-30.464-33.376-63.648-41.472-98.656-2.72-11.808-12.672-20.8-24.704-22.368l-85.856-10.848c-6.4-0.8-11.2-6.24-11.2-12.704v-49.024c0-6.464 4.8-11.904 11.232-12.672l85.248-10.592c12.16-1.536 22.144-10.56 24.768-22.496 7.84-34.88 21.568-68.064 40.864-98.72 6.336-10.016 5.888-23.136-1.12-32.704l-51.872-71.008c-3.712-5.12-3.168-12.192 1.344-16.672l34.048-33.76c2.496-2.432 5.76-3.712 9.024-3.712 2.688 0 5.408 0.864 7.712 2.592l69.76 52.64c5.12 3.904 11.168 5.952 17.536 5.952z" />
<glyph unicode="&#xe939;" glyph-name="pen" d="M46.544-41.728c-7.808 0-15.104 3.008-20.544 8.48-8.384 8.384-10.848 20.768-6.336 31.68 0 0 93.344 224.768 93.856 226.208l-0.224-0.896c1.376 2.56 3.104 4.864 5.344 7.072l671.456 671.52c22.912 22.816 53.344 35.392 85.792 35.392 32.416 0 62.848-12.576 85.728-35.392 47.232-47.2 47.232-124.096-0.032-171.392-0.288-0.288-671.296-671.232-671.296-671.232-1.504-1.568-2.912-2.784-4.448-3.84-0.32-0.192-5.44-3.008-5.504-3.040l-222.656-92.384c-3.552-1.408-7.328-2.176-11.136-2.176zM151.152 148.672c-4.192-0.832-7.712-3.712-9.344-7.648l-29.568-71.264c-1.984-4.768-0.896-10.272 2.784-13.984 2.432-2.432 5.728-3.744 9.056-3.744 1.664 0 3.328 0.352 4.896 0.992l71.264 29.568c3.968 1.632 6.816 5.12 7.648 9.312s-0.48 8.544-3.488 11.552l-41.696 41.696c-2.432 2.4-5.696 3.744-9.056 3.744-0.864 0-1.696-0.064-2.496-0.224zM745.616 770.144c-3.392 0-6.656-1.344-9.056-3.744l-547.424-547.296c-2.4-2.4-3.744-5.664-3.744-9.056s1.344-6.656 3.744-9.056l71.072-71.104c2.4-2.368 5.664-3.744 9.056-3.744v0c3.392 0 6.656 1.376 9.056 3.744l547.36 547.328c4.992 4.992 4.992 13.088 0 18.080l-71.040 71.072c-2.4 2.432-5.632 3.776-9.024 3.776v0zM875.792 879.616c-16.832 0-32.672-6.56-44.608-18.464-0.32-0.32-35.488-35.552-35.488-35.552-4.992-4.992-4.992-13.088 0-18.080l71.072-71.072c2.4-2.4 5.664-3.744 9.056-3.744s6.656 1.344 9.056 3.744c0 0 34.016 33.824 34.528 34.432 25.6 25.728 25.6 65.76 1.024 90.368-0.352 0.288-0.704 0.64-1.088 0.96-11.808 11.232-27.232 17.408-43.552 17.408z" />
<glyph unicode="&#xe93a;" glyph-name="accompagner" d="M942.4 576c-6.4 70.4-41.6 99.2-112 99.2-51.2 0-99.2 0-150.4 0-44.8 0-76.8-16-99.2-54.4-16-25.6-28.8-48-48-70.4-25.6-35.2-64-48-102.4-44.8-51.2 6.4-99.2 28.8-128 76.8-9.6 16-19.2 28.8-32 41.6-38.4 41.6-80 51.2-124.8 35.2s-73.6-57.6-70.4-112c9.6-156.8 22.4-313.6 41.6-470.4 6.4-51.2 35.2-76.8 80-76.8 41.6 3.2 67.2 28.8 70.4 83.2 6.4 96 16 188.8 19.2 284.8 0 25.6 9.6 28.8 32 22.4 38.4-9.6 227.2-41.6 313.6 64 0-73.6 0-134.4 0-195.2 0-64 0-128 0-188.8 0-44.8 22.4-73.6 57.6-73.6 35.2-3.2 57.6 22.4 67.2 64 3.2 19.2 6.4 35.2 9.6 64 9.6-38.4 12.8-67.2 22.4-96 6.4-22.4 25.6-38.4 51.2-35.2 25.6 0 41.6 12.8 51.2 38.4 6.4 12.8 6.4 28.8 6.4 44.8 0 64 0 128 0 188.8 0 16 0 28.8 19.2 35.2 25.6 12.8 35.2 35.2 35.2 64-3.2 73.6-3.2 140.8-9.6 211.2zM449.6 428.8c-6.4-22.4-25.6-12.8-41.6-9.6-67.2 3.2-121.6 35.2-163.2 86.4-9.6 12.8-25.6 32-41.6 12.8-16-16 0-32 12.8-41.6 32-22.4 38.4-54.4 35.2-89.6-9.6-99.2-16-201.6-22.4-300.8 0-22.4-3.2-41.6-32-41.6-25.6 0-32 19.2-35.2 41.6-12.8 112-22.4 224-32 336-3.2 35.2-6.4 70.4-9.6 112 0 9.6 0 25.6 3.2 38.4 12.8 48 70.4 64 105.6 32 22.4-19.2 38.4-41.6 54.4-64 22.4-32 54.4-54.4 92.8-64 16-3.2 32-9.6 44.8-16 16-3.2 32-9.6 28.8-32zM894.4 342.4c-16 0-12.8 19.2-16 32-3.2 51.2 0 102.4-9.6 153.6-3.2 16-6.4 28.8-25.6 25.6-12.8-3.2-19.2-12.8-19.2-28.8 6.4-57.6 9.6-153.6 12.8-166.4 25.6-92.8 9.6-185.6 16-275.2 0-3.2 0-6.4 0-9.6 0-12.8 0-28.8-16-28.8s-16 16-16 28.8c-12.8 73.6-22.4 144-35.2 217.6-3.2 16-3.2 35.2-22.4 35.2-22.4 0-19.2-19.2-22.4-35.2-6.4-60.8-16-121.6-22.4-185.6-3.2-12.8-3.2-25.6-6.4-41.6-3.2-9.6-6.4-19.2-19.2-19.2-16 0-16 12.8-19.2 22.4 0 9.6 0 22.4 0 32 0 67.2 0 131.2 0 198.4 0 70.4 0 140.8 0 211.2 0 12.8 3.2 28.8-16 35.2-16 6.4-25.6-6.4-32-19.2-12.8-16-25.6-28.8-35.2-48-19.2-32-51.2-35.2-83.2-41.6-12.8-3.2-19.2 3.2-19.2 12.8-3.2 12.8-6.4 22.4 9.6 25.6 57.6 9.6 80 57.6 102.4 99.2 22.4 44.8 54.4 60.8 105.6 57.6 41.6-3.2 83.2 0 124.8 0 44.8 0 64-16 67.2-57.6 6.4-67.2 6.4-134.4 9.6-201.6 3.2-9.6 6.4-28.8-12.8-28.8zM177.6 697.6c57.6 0 102.4 44.8 102.4 102.4s-44.8 105.6-102.4 105.6c-57.6 0-102.4-44.8-102.4-102.4s44.8-105.6 102.4-105.6zM177.6 864c35.2 0 60.8-28.8 60.8-60.8s-25.6-64-60.8-64c-35.2 0-60.8 28.8-60.8 64s25.6 60.8 60.8 60.8zM756.8 697.6c57.6 0 102.4 44.8 102.4 102.4s-44.8 102.4-102.4 102.4c-57.6 0-102.4-44.8-102.4-102.4s48-102.4 102.4-102.4zM756.8 864c35.2 0 60.8-28.8 60.8-60.8s-25.6-64-60.8-64-60.8 28.8-60.8 64 28.8 60.8 60.8 60.8z" />
<glyph unicode="&#xe93b;" glyph-name="discriminer" d="M512 956.175c-280.696 0-508.205-227.509-508.205-508.205s227.509-508.145 508.205-508.145c280.696 0 508.205 227.448 508.205 508.145s-227.509 508.205-508.205 508.205zM512 0.060c-247.025 0-447.97 200.945-447.97 447.91 0.060 247.025 201.005 447.97 447.97 447.97 247.025 0 447.97-200.945 447.97-447.97 0-246.965-200.945-447.91-447.97-447.91zM507.844 433.513c91.497 0 166.008 75.113 166.008 167.394 0 44.695-17.288 86.679-48.55 118.362-31.322 31.563-73.005 49.032-117.459 49.032-91.437 0-165.948-75.053-165.948-167.394 0-44.695 17.348-86.679 48.55-118.362 31.322-31.624 73.065-49.032 117.399-49.032zM507.844 730.714c0.241 0 0.542-0.060 0.783-0.060v-259.433c-0.241 0-0.542-0.060-0.783-0.060-70.716 0-128.361 58.187-128.361 129.807 0 71.499 57.645 129.747 128.361 129.747zM629.519 413.997h-117.519l5.542-202.872h-205.222l14.818 135.108 81.498 32.888-14.035 34.876-102.34-41.502-21.986-199.017h483.388l-21.805 199.017z" />
<glyph unicode="&#xe93c;" glyph-name="assignment" d="M867.27 854.529c27.021 0 50.867-10.332 71.529-30.997 20.665-20.665 30.995-44.508 30.995-71.531v-710.537c0-27.022-10.33-50.86-30.995-71.525-20.662-20.665-44.508-30.996-71.529-30.996h-710.536c-27.023 0-50.866 10.331-71.531 30.996s-30.997 44.503-30.997 71.525v710.538c0 27.022 10.333 50.866 30.997 71.531s44.508 30.997 71.531 30.997h212.206c11.127 30.202 29.407 54.84 54.84 73.916s54.84 28.612 88.222 28.612c33.38 0 62.788-9.537 88.222-28.612 25.431-19.075 43.709-43.713 54.837-73.916h212.209zM767.126 549.335v102.528h-510.249v-102.528h510.249zM767.126 346.664v100.145h-510.249v-100.145h510.249zM614.526 141.61v102.527h-357.649v-102.527h357.649zM547.767 840.223c-9.538 9.538-21.459 14.306-35.765 14.306s-26.229-4.769-35.766-14.306c-9.538-9.538-14.307-21.459-14.307-35.766s4.769-26.625 14.307-36.958c9.537-10.333 21.459-15.498 35.766-15.498s26.227 5.166 35.765 15.498 14.307 22.651 14.307 36.958c-0.001 14.307-4.769 26.228-14.307 35.766z" />
<glyph unicode="&#xe93d;" glyph-name="duplicate-folders" d="M512 376.096c-4.96 0-9.824 1.216-14.112 3.584l-466.144 254.24c-9.536 5.184-15.424 15.136-15.424 25.952 0 10.848 5.92 20.768 15.424 25.952l466.112 254.24c4.288 2.336 9.184 3.584 14.144 3.584s9.824-1.248 14.112-3.584l466.144-254.24c9.536-5.184 15.424-15.136 15.424-25.952s-5.92-20.768-15.392-25.92l-466.144-254.272c-4.352-2.336-9.248-3.584-14.144-3.584zM512 878.656c-2.112 0-4.224-0.512-6.112-1.568l-377.536-205.984c-4.128-2.24-6.688-6.56-6.688-11.232s2.56-8.992 6.656-11.232l377.536-205.984c1.92-1.056 4-1.568 6.112-1.568s4.224 0.512 6.112 1.568l377.632 205.984c4.128 2.24 6.688 6.56 6.688 11.232s-2.56 8.992-6.688 11.232l-377.6 205.984c-1.888 1.056-4 1.568-6.112 1.568zM512 164.224c-4.544 0-8.864 0.96-12.864 2.944l-466.144 226.304c-9.568 4.672-15.936 14.112-16.64 24.672-0.672 10.56 4.384 20.736 13.248 26.592l42.368 27.968c4.832 3.2 10.464 4.864 16.224 4.864 9.984 0 19.232-4.96 24.736-13.28 5.92-8.928 6.528-20.48 1.536-30.080-1.568-3.072-1.856-6.624-0.768-9.92 1.056-3.232 3.456-5.92 6.528-7.424l386.144-187.488c1.76-0.864 3.68-1.312 5.6-1.312s3.84 0.448 5.6 1.312l386.208 187.488c3.136 1.504 5.504 4.224 6.56 7.488 1.088 3.296 0.768 6.88-0.8 9.952-4.992 9.504-4.448 20.992 1.504 30.016 5.44 8.256 14.688 13.216 24.672 13.216 5.792 0 11.392-1.696 16.32-4.864l42.304-27.968c8.864-5.824 13.952-16.032 13.216-26.592-0.672-10.592-7.040-20.032-16.608-24.672l-466.080-226.272c-3.968-1.92-8.416-2.944-12.864-2.944zM512-47.648c-4.544 0-8.864 0.96-12.864 2.944l-466.144 226.272c-9.568 4.672-15.936 14.112-16.64 24.672-0.672 10.56 4.384 20.736 13.248 26.592l42.368 27.968c4.864 3.232 10.496 4.896 16.288 4.896 9.984 0 19.2-4.96 24.672-13.28 5.92-8.928 6.528-20.48 1.536-30.080-1.568-3.072-1.856-6.624-0.768-9.92s3.456-5.984 6.56-7.456l386.144-187.488c1.76-0.864 3.68-1.312 5.6-1.312s3.84 0.448 5.6 1.312l386.208 187.488c3.136 1.504 5.504 4.224 6.56 7.488 1.088 3.328 0.768 6.912-0.8 9.984-4.992 9.472-4.448 20.992 1.504 30.016 5.44 8.256 14.688 13.216 24.672 13.216 5.792 0 11.424-1.696 16.32-4.864l42.304-27.936c8.864-5.824 13.952-16 13.216-26.592-0.672-10.592-7.040-20.032-16.608-24.672l-466.080-226.272c-4-1.952-8.448-2.976-12.896-2.976z" />
<glyph unicode="&#xe93e;" glyph-name="duplicate" d="M348.112-49.088c-36.736 0-45.728 8.672-45.728 44.128v92.48c0 3.52-2.88 6.4-6.4 6.4h-163.872c-36.736 0-45.728 8.672-45.728 44.16v762.88c0 35.488 8.96 44.128 45.728 44.128h543.712c36.736 0 45.728-8.672 45.728-44.128v-92.448c0-3.52 2.88-6.4 6.4-6.4h163.936c36.32 0 45.728-9.344 45.728-45.216v-761.888c0-35.424-8.96-44.096-45.664-44.096h-543.84zM367.952 741.92c-3.52 0-6.4-2.88-6.4-6.4v-718.016c0-3.52 2.88-6.4 6.4-6.4h523.84c3.52 0 6.4 2.88 6.4 6.4l0.096 718.016c0 1.696-0.672 3.328-1.888 4.544-1.216 1.184-2.848 1.888-4.544 1.888h-523.904zM152.944 886.912c-3.52 0-6.4-2.88-6.4-6.4v-720c0-3.52 2.88-6.4 6.4-6.4h143.008c3.52 0 6.4 2.88 6.4 6.4v597.44c0 35.488 8.96 44.16 45.728 44.16h307.872c3.52 0 6.4 2.88 6.4 6.4v72c0 3.52-2.88 6.4-6.4 6.4h-503.008z" />
<glyph unicode="&#xe93f;" glyph-name="pause" d="M657.824 108.816c-33.152 0-60.128 26.944-60.128 60.096v558.176c0 33.152 26.976 60.096 60.128 60.096 33.12 0 60.064-26.944 60.064-60.096v-558.176c0-16.128-6.208-31.232-17.568-42.496-11.36-11.36-26.432-17.6-42.496-17.6zM366.208 108.816c-33.152 0-60.096 26.944-60.096 60.096v558.176c0 33.152 26.944 60.096 60.096 60.096s60.096-26.944 60.096-60.096v-558.176c0-16.096-6.24-31.2-17.6-42.496-11.328-11.36-26.4-17.6-42.496-17.6z" />
<glyph unicode="&#xe940;" glyph-name="wa-abonnementprofil, mes-candidatures" d="M904.192-0.128h-784.384v728.192h56.32v-671.872h671.744v783.616h-559.872v56.32h616.192zM259.968 280.192h503.936v-56.32h-503.936v56.32zM259.968 168.192h503.936v-56.32h-503.936v56.32zM512 559.872c-61.824 0-112.128 50.304-112.128 112.128s50.304 112.128 112.128 112.128c61.824 0 112.128-50.304 112.128-112.128s-50.304-112.128-112.128-112.128zM512 727.808c-30.848 0-55.808-25.088-55.808-55.808s25.088-55.808 55.808-55.808c30.848 0 55.808 25.088 55.808 55.808s-24.96 55.808-55.808 55.808zM686.208 335.872h-348.16l37.248 196.096 70.912 26.368 19.584-52.736-41.088-15.232-18.688-98.176h211.84l-18.688 95.616-42.368 18.304 22.4 51.712 69.632-30.208z" />
<glyph unicode="&#xe941;" glyph-name="wa-actualisation" d="M251.076 708.873c33.907 33.905 73.373 60.517 117.309 79.101 43.772 18.514 90.204 28.213 138.086 28.908l-49.001-30.319 27.91-45.104 134.691 83.344-83.342 134.689-45.102-27.91 38.094-61.561c-5.879 0.243-11.779 0.382-17.719 0.382-233.319 0-422.462-189.142-422.462-422.456 0-167.605 97.603-312.411 239.068-380.683l21.835 48.834c-36.784 17.918-70.145 41.704-99.367 70.924-33.905 33.907-60.517 73.376-79.101 117.309-19.227 45.459-28.976 93.778-28.976 143.615s9.749 98.157 28.976 143.614c18.581 43.937 45.196 83.404 79.101 117.311zM934.459 447.951c0 167.038-96.956 311.416-237.647 379.975l-21.835-48.831c36.22-17.834 69.103-41.38 97.949-70.224 33.91-33.907 60.516-73.373 79.101-117.307 19.227-45.459 28.979-93.778 28.979-143.612 0-49.84-9.754-98.16-28.979-143.615-18.585-43.933-45.191-83.402-79.101-117.307-33.908-33.907-73.375-60.519-117.306-79.101-43.894-18.563-90.457-28.263-138.473-28.914l49.282 30.49-27.91 45.102-134.791-83.407 83.344-134.691 45.099 27.91-38.034 61.463c5.926-0.248 11.881-0.39 17.869-0.39 233.314 0.002 422.454 189.142 422.454 422.461z" />
<glyph unicode="&#xe942;" glyph-name="wa-appel" d="M660.48-0.256c-27.136 0-55.168 2.688-83.712 8.064-111.872 21.12-223.616 82.688-314.496 173.44-91.008 90.496-153.6 202.496-176.256 315.392-23.040 114.944-3.2 221.056 55.936 298.88l44.8-34.048c-49.28-64.768-65.408-154.88-45.568-253.696 20.48-102.144 77.568-203.904 160.64-286.72s184.32-138.88 285.312-157.952c97.536-18.432 185.984-0.64 248.832 50.176l35.456-43.776c-56.96-45.952-129.92-69.76-210.944-69.76zM920.96 134.784l-210.432 210.944-37.632-37.76c-39.936-40.064-92.928-62.080-149.376-62.208 0 0-0.128 0-0.128 0-56.448 0-109.568 22.016-149.632 62.208-82.432 82.56-82.432 216.96 0 299.52l37.76 37.888-210.56 211.072 39.936 39.808 250.24-250.88-77.44-77.696c-60.672-60.672-60.672-159.36 0-219.904 29.312-29.44 68.352-45.568 109.696-45.568 0 0 0 0 0.128 0 41.344 0 80.256 16.256 109.568 45.568l77.568 77.824 250.368-251.008-40.064-39.808z" />
<glyph unicode="&#xe943;" glyph-name="wa-consulter" d="M876.864 469.76c-8.192 61.952-49.152 120.192-115.456 163.84-69.248 45.568-158.592 70.272-251.52 69.504-93.696-0.768-182.656-25.856-250.496-70.528-65.28-43.136-105.088-100.736-112.128-162.176l-55.936 6.4c18.176 159.232 198.016 280.704 418.176 282.496 103.936 0.896 204.544-27.136 282.88-78.72 80.128-52.736 130.048-125.056 140.288-203.52l-55.808-7.296zM510.144 135.936c-102.4 0-201.088 27.904-278.4 78.72-80.256 52.736-130.048 125.056-140.416 203.52l55.808 7.296c8.192-62.080 49.152-120.192 115.456-163.84 68.224-44.8 155.904-69.504 247.424-69.504 1.408 0 2.688 0 4.096 0 93.696 0.768 182.656 25.856 250.496 70.528 65.28 43.136 105.088 100.736 112.128 162.304l55.936-6.4c-18.176-159.36-198.016-280.96-418.176-282.752-1.28 0.128-2.816 0.128-4.352 0.128zM511.936 238.848c-115.712 0-210.304 92.416-211.328 206.848-0.512 55.808 21.12 108.416 60.8 148.224 39.552 39.552 92.416 61.696 148.864 62.208 0.768 0 1.408 0 2.176 0 56.064 0 108.928-21.504 148.736-60.672 39.68-39.040 61.824-90.88 62.208-146.176 0.512-55.808-21.12-108.416-60.8-148.224-39.552-39.552-92.416-61.696-148.864-62.208-0.512 0-1.152 0-1.792 0zM512.448 599.808c-0.512 0-1.024 0-1.536 0-41.6-0.384-80.512-16.64-109.568-45.696-28.928-28.928-44.672-67.328-44.416-107.904 0.768-83.584 70.144-151.040 155.008-151.040 0.512 0 0.896 0 1.408 0 41.472 0.384 80.384 16.64 109.44 45.696 28.928 28.928 44.672 67.328 44.416 107.904v0c-0.256 40.192-16.384 77.952-45.312 106.368-29.312 28.928-68.096 44.672-109.44 44.672zM405.312 446.72c-0.256 28.288 10.752 54.912 30.848 75.008 19.968 19.968 46.592 31.104 75.008 31.36l0.384-56.32c-13.44-0.128-26.112-5.376-35.584-14.848-9.344-9.344-14.464-21.76-14.336-34.816l-56.32-0.384z" />
<glyph unicode="&#xe944;" glyph-name="wa-contactcandidat" d="M464.128 345.856c-101.632 0-184.192 82.688-184.192 184.32s82.688 184.32 184.192 184.32c101.632 0 184.192-82.688 184.192-184.32 0.128-101.632-82.56-184.32-184.192-184.32zM464.128 658.048c-70.528 0-127.872-57.344-127.872-128s57.344-128 127.872-128c70.528 0 127.872 57.344 127.872 128 0.128 70.656-57.344 128-127.872 128zM734.080 72.576h-531.2l24.96 223.744 113.024 45.312 20.992-52.224-81.792-32.768-14.208-127.744h405.376l-14.208 127.616-82.048 32.896 20.992 52.224 113.28-45.312zM880.384-8.576h-823.68v823.808h823.68v-823.808zM113.024 47.744h711.040v711.168h-711.040v-711.168zM967.296 71.552h-56.32v776.704h-779.008v56.32h835.328z" />
<glyph unicode="&#xe945;" glyph-name="wa-contactconseiller" d="M549.888 0.704v56.32c105.728 0 205.184 40.704 279.936 114.688 74.752 73.856 115.84 172.032 115.84 276.352s-41.088 202.496-115.84 276.352c-74.752 73.984-174.208 114.688-279.936 114.688s-205.184-40.704-279.936-114.688c-74.624-73.856-115.712-172.032-115.712-276.352 0-118.912 53.888-230.016 147.84-304.64l32.256-25.6-104.064-60.8h258.944v-56.32h-467.2l214.4 125.184c-88.448 84.096-138.496 199.424-138.496 322.176 0 60.416 12.032 119.040 35.584 174.208 22.784 53.248 55.424 101.12 96.896 142.208s89.856 73.344 143.616 95.744c55.68 23.296 114.816 35.072 175.872 35.072 60.928 0 120.192-11.776 175.872-35.072 53.888-22.528 102.144-54.784 143.744-95.744 41.6-41.088 74.112-88.96 96.896-142.208 23.68-55.168 35.584-113.792 35.584-174.208s-12.032-119.040-35.584-174.208c-22.784-53.248-55.424-101.12-96.896-142.208s-89.856-73.344-143.744-95.744c-55.68-23.424-114.944-35.2-175.872-35.2z" />
<glyph unicode="&#xe946;" glyph-name="wa-demarches, voir-demande-inscription" d="M736.256 111.744h-616.448v784.384h616.448v-784.384zM176.128 168.064h503.808v671.744h-503.808v-671.744zM259.968 560.128h336v-56.32h-336v56.32zM259.968 448.128h336v-56.32h-336v56.32zM259.968 336.256h336v-56.32h-336v56.32zM259.968 672.768h168.064v-56.32h-168.064v56.32zM904.192-0.128h-588.288v56.32h531.968v671.744h-54.272v56.32h110.592z" />
<glyph unicode="&#xe947;" glyph-name="wa-deposeroffre" d="M904.32-0.128h-784.64v224.128h56.32v-167.808h672v167.808h56.32zM512 201.344l-276.736 414.848h164.608v279.936h56.32v-336.256h-115.712l171.52-257.024 171.52 257.024h-115.584v336.256h56.32v-279.936h164.48z" />
<glyph unicode="&#xe948;" glyph-name="wa-didacticiel" d="M927.36 113.024h-830.72v669.952h830.72v-669.952zM152.96 169.344h718.080v557.312h-718.080v-557.312zM406.528 300.288v295.424l298.112-147.584-298.112-147.84zM462.848 504.96v-113.792l114.944 56.96-114.944 56.832z" />
<glyph unicode="&#xe949;" glyph-name="wa-employeurparticulier" d="M512.896 421.632c-69.888 0-126.72 56.832-126.72 126.72s56.832 126.72 126.72 126.72c69.888 0 126.72-56.832 126.72-126.72s-56.832-126.72-126.72-126.72zM512.896 618.88c-38.912 0-70.4-31.616-70.4-70.4s31.616-70.4 70.4-70.4c38.784 0 70.4 31.616 70.4 70.4s-31.616 70.4-70.4 70.4zM694.912 249.216h-358.656l17.664 158.976 77.312 30.976 20.864-52.352-45.952-18.304-6.912-62.976h232.704l-7.040 62.976-45.824 18.304 20.992 52.352 77.056-30.976zM514.944 90.496c-94.72 0-183.808 36.864-250.88 103.936s-103.936 156.032-103.936 250.88 36.864 183.808 103.936 250.88 156.032 103.936 250.88 103.936 183.808-36.864 250.88-103.936 103.936-156.032 103.936-250.88-36.864-183.808-103.936-250.88-156.16-103.936-250.88-103.936zM514.944 743.552c-79.744 0-154.624-30.976-210.944-87.424s-87.424-131.328-87.424-210.944 30.976-154.624 87.424-210.944c56.32-56.32 131.328-87.424 210.944-87.424s154.624 30.976 210.944 87.424c56.32 56.32 87.424 131.328 87.424 210.944s-31.104 154.624-87.424 211.072c-56.32 56.32-131.328 87.296-210.944 87.296zM487.424 896h56.32v-137.984h-56.32v137.984zM486.784 136.576h56.32v-136.576h-56.32v136.576zM824.832 473.344h135.296v-56.32h-135.296v56.32zM63.872 473.344h137.344v-56.32h-137.344v56.32z" />
<glyph unicode="&#xe94a;" glyph-name="wa-infomarche, imt" d="M456.064-0.256c-104.704 0-203.136 40.832-277.12 114.816-73.984 74.112-114.688 172.672-114.688 277.376s40.704 203.264 114.688 277.248c73.984 74.112 172.416 114.816 277.12 114.816v-56.32c-89.6 0-173.824-34.944-237.184-98.304-63.36-63.488-98.304-147.712-98.304-237.44s34.944-174.080 98.304-237.44c63.36-63.36 147.584-98.304 237.184-98.304s173.824 34.944 237.184 98.304c63.36 63.488 98.304 147.712 98.304 237.44h56.32c0-104.704-40.704-203.264-114.688-277.248-74.112-74.112-172.544-114.944-277.12-114.944zM959.744 447.872h-448v448.384h28.16c103.168 0 209.28-46.976 291.072-128.896s128.768-188.032 128.768-291.328v-28.16zM568.192 504.192h333.952c-7.68 79.488-47.104 159.488-110.848 223.36s-143.744 103.296-223.104 110.976v-334.336z" />
<glyph unicode="&#xe94b;" glyph-name="wa-inscription, demande-ins, nouvelle-demande-inscription, nouvelle-demande-reinscription, reprise-demande-inscription2" d="M94.442 59.735l253.618 242.084 38.889-40.742-253.618-242.084-38.889 40.742zM423.616 224.64c-62.208 0-112.768 50.944-112.768 113.664s50.56 113.664 112.768 113.664 112.768-50.944 112.768-113.664-50.56-113.664-112.768-113.664zM423.616 395.648c-31.104 0-56.448-25.728-56.448-57.344s25.344-57.344 56.448-57.344 56.448 25.728 56.448 57.344-25.344 57.344-56.448 57.344zM705.472 424.192c-60.288 0-116.864 23.68-159.488 66.816-42.496 42.88-65.92 100.096-65.92 160.768s23.424 117.76 65.92 160.768l77.184 78.72 319.36-322.304-77.44-78.080c-42.752-43.008-99.328-66.688-159.616-66.688zM623.296 811.008l-37.248-38.016c-66.176-66.944-66.176-175.616 0-242.432 32-32.256 74.368-50.048 119.552-50.048 45.056 0 87.552 17.792 119.424 50.048l38.144 38.4-239.872 242.048zM81.472 4.736l62.336 550.656 266.112 149.376 27.52-49.024-240.896-135.424-50.432-446.336 482.176 89.856 78.976 212.992 52.736-19.712-90.112-242.816z" />
<glyph unicode="&#xe94c;" glyph-name="wa-inscription2" d="M880.064 583.68l-240.768 241.28 19.84 19.84c32.128 32.256 75.008 50.048 120.448 50.048 0 0 0 0 0 0 45.44 0 88.192-17.792 120.448-50.048 66.304-66.432 66.304-174.72 0-241.152l-19.968-19.968zM721.216 822.528l156.288-156.544c25.984 43.776 20.096 101.504-17.408 139.136-21.504 21.632-50.176 33.536-80.512 33.536-20.864-0.128-40.832-5.76-58.368-16.128zM585.227 766.242l48.306 28.96 170.533-284.454-48.306-28.96-170.533 284.454zM57.664 1.152l84.48 317.44 54.528-14.464-59.648-223.744 223.872 59.008 14.464-54.4zM421.824 126.464l-66.944 171.904-171.392 67.072 352.512 356.352 39.936-39.552-292.224-295.552 114.688-44.928 44.672-114.56 237.184 236.416 39.808-39.808z" />
<glyph unicode="&#xe94d;" glyph-name="wa-lire" d="M432.256 576.768h178.56v-56.32h-178.56v56.32zM332.928 423.552h-56.32v79.616l0.256 1.664c0.256 2.048 6.656 50.944 42.496 99.456 32.896 44.544 97.664 97.536 219.136 97.536h72.32v-56.32h-72.32c-77.568 0-135.68-24.448-172.416-72.832-24.832-32.64-31.872-66.304-33.152-73.472v-75.648zM608.128 410.368v138.24h2.688v28.16h53.632v-62.336l158.464 103.68-158.464 103.68v-76.16h-53.632v28.16h-2.688v152.192l317.696-207.872zM843.008 70.016h-744.832v631.936h181.12v-56.32h-124.8v-519.296h632.192v323.584h56.32z" />
<glyph unicode="&#xe94e;" glyph-name="wa-loupe, recherche-offres" d="M425.152 169.472c-96.128 0-186.624 37.632-254.592 106.112-67.84 68.352-105.344 159.232-105.344 255.872s37.376 187.648 105.344 256c67.968 68.352 158.336 106.112 254.464 106.112s186.624-37.632 254.592-106.112c67.968-68.352 105.344-159.232 105.344-256 0-96.64-37.376-187.648-105.344-256s-158.336-105.984-254.464-105.984zM425.152 837.248c-81.024 0-157.184-31.744-214.528-89.472s-88.96-134.528-88.96-216.32c0-81.664 31.616-158.464 88.96-216.192s133.504-89.472 214.528-89.472c81.024 0 157.184 31.744 214.528 89.472s88.96 134.528 88.96 216.32c0 81.664-31.616 158.464-88.96 216.32-57.344 57.6-133.504 89.344-214.528 89.344zM867.392 2.432c-22.272 0-43.136 8.704-58.88 24.448l-154.24 150.528 39.296 40.32 154.752-151.040c5.12-5.12 11.904-7.936 19.072-7.936s14.080 2.816 19.072 7.936c10.624 10.752 10.624 28.288 0 39.040l-0.256 0.256-149.76 155.52 40.576 39.040 149.632-155.264c32.128-32.512 32.128-85.504-0.128-118.144-15.744-16-36.736-24.704-59.136-24.704z" />
<glyph unicode="&#xe94f;" glyph-name="wa-offrerapide" d="M558.208 52.48v56.32c91.52 0 177.536 35.328 242.176 99.456s100.224 149.248 100.224 239.744c0 90.496-35.584 175.616-100.224 239.744s-150.656 99.456-242.176 99.456-177.536-35.328-242.176-99.456c-64.64-64-100.224-149.248-100.224-239.744h-56.32c0 105.728 41.472 205.056 116.864 279.68 75.264 74.752 175.36 115.84 281.856 115.84s206.592-41.088 281.856-115.712c75.392-74.752 116.864-174.080 116.864-279.68s-41.472-205.056-116.864-279.68c-75.392-74.88-175.488-115.968-281.856-115.968zM187.648 408.32l-120.576 119.552 39.552 39.936 81.024-80.128 80.896 80.128 39.68-39.936zM676.096 417.408h-140.8v225.408h56.32v-169.088h84.48z" />
<glyph unicode="&#xe950;" glyph-name="wa-offreverifiee" d="M512.064 3.584c-59.776 0-117.632 11.776-172.288 34.944-52.736 22.4-99.968 54.4-140.672 95.232-40.576 40.832-72.576 88.32-94.848 141.184-23.040 54.784-34.816 113.024-34.816 172.928s11.648 118.144 34.816 172.928c22.272 52.864 54.144 100.48 94.72 141.312s87.936 72.832 140.544 95.232c54.784 23.296 112.768 35.072 172.544 35.072 79.104 0 156.8-21.248 224.64-61.44l-28.8-48.512c-59.136 35.072-126.848 53.504-195.968 53.504-103.040 0-199.936-40.32-272.896-113.664-72.832-73.216-113.024-170.624-113.024-274.304s40.192-201.088 113.152-274.432c72.96-73.216 169.856-113.664 273.024-113.664 103.040 0 200.064 40.32 272.896 113.664 72.96 73.344 113.152 170.752 113.152 274.432 0 60.288-13.312 118.016-39.68 171.648l50.56 24.832c30.208-61.44 45.44-127.488 45.44-196.48 0-59.904-11.648-118.144-34.816-172.928-22.272-52.864-54.144-100.48-94.72-141.184-40.576-40.832-87.936-72.832-140.544-95.232-54.656-23.296-112.64-35.072-172.416-35.072zM383.808 220.544l-159.36 160 39.936 39.68 119.424-119.936 375.936 377.856 39.936-39.68z" />
<glyph unicode="&#xe951;" glyph-name="wa-organisersalon" d="M437.12 598.272h-133.632v209.152h133.632v-209.152zM359.808 654.592h20.992v96.512h-20.992v-96.512zM720.512 598.272h-133.632v209.152h133.632v-209.152zM643.2 654.592h20.992v96.512h-20.992v-96.512zM926.72 88.576h-829.44v642.432h157.056v-56.32h-100.736v-529.792h716.8v529.792h-100.736v56.32h157.056zM486.272 731.008h51.456v-56.32h-51.456v56.32zM305.792 399.744h412.416v-56.32h-412.416v56.32zM305.792 297.728h412.416v-56.32h-412.416v56.32zM125.44 552.704h772.992v-56.32h-772.992v56.32z" />
<glyph unicode="&#xe952;" glyph-name="wa-parcours" d="M925.696 217.344h-337.024v56.32h280.704v449.792h-714.752v-449.792h282.24v-56.32h-338.56v562.432h827.392zM822.912 318.592h-621.824v360.064h621.824v-360.064zM257.408 374.912h509.184v247.424h-509.184v-247.424zM483.84 272.768h56.32v-52.48h-56.32v52.48zM356.864 172.544h310.272v-56.32h-310.272v56.32z" />
<glyph unicode="&#xe953;" glyph-name="wa-profil" d="M505.856 392.064c-66.432 0-128.896 26.112-175.744 73.472s-72.704 110.208-72.704 177.152c0 138.24 111.488 250.624 248.448 250.624 66.432 0 128.896-26.112 175.744-73.472s72.704-110.208 72.704-177.152c0-138.112-111.488-250.624-248.448-250.624zM505.856 836.992c-105.984 0-192.128-87.168-192.128-194.304s86.144-194.304 192.128-194.304 192.128 87.168 192.128 194.304-86.144 194.304-192.128 194.304zM873.856 2.688h-723.712l32.896 298.24 153.216 61.952 20.992-52.224-121.984-49.28-22.272-202.368h598.016l-22.144 202.368-122.112 49.28 21.12 52.224 153.216-61.952z" />
<glyph unicode="&#xe954;" glyph-name="wa-profilentreprise, acces-entreprise" d="M505.984 392.576c-65.792 0-127.744 25.6-174.208 72.192s-72.064 108.544-72.064 174.336c0 135.936 110.464 246.656 246.272 246.656 0.128 0 0.128 0 0.256 0 65.536 0 127.232-25.6 173.696-71.936 46.72-46.592 72.32-108.672 72.32-174.592 0-136.064-110.464-246.656-246.272-246.656zM506.24 829.44c-0.128 0-0.128 0-0.256 0-104.832 0-190.080-85.376-190.080-190.336s85.248-190.336 189.952-190.336c104.832 0 189.952 85.376 189.952 190.336 0 50.944-19.84 98.816-55.808 134.784-35.712 35.84-83.2 55.552-133.76 55.552zM870.656 10.24h-717.312l32.512 293.76 152.064 60.928 20.864-52.352-120.704-48.256-21.888-197.76h591.616l-21.888 197.76-120.704 48.256 20.864 52.352 152.064-60.928zM510.592 145.536l-114.944 134.784 42.752 36.48 72.704-85.12 74.88 85.504 42.368-37.12z" />
<glyph unicode="&#xe955;" glyph-name="wa-recrutement" d="M469.056 437.12c-126.080 0-228.608 102.912-228.608 229.504s102.528 229.504 228.608 229.504c126.080 0 228.608-102.912 228.608-229.504s-102.528-229.504-228.608-229.504zM469.056 839.808c-94.976 0-172.288-77.696-172.288-173.184s77.312-173.184 172.288-173.184c94.976 0 172.288 77.696 172.288 173.184s-77.312 173.184-172.288 173.184zM581.824 84.608h-439.552l30.592 274.688 145.92 58.624h311.552l146.048-58.624 5.888-54.4h-31.744c-94.976 0-172.288-77.696-172.288-173.184 0-5.12 0.256-10.624 0.768-16.384l2.816-30.72zM205.248 140.928h316.8c3.584 91.648 61.056 169.6 141.312 203.008l-43.904 17.664h-289.792l-104.576-41.984-19.84-178.688zM750.528 263.552c-72.448 0-131.2-58.88-131.2-131.84 0-72.832 58.752-131.84 131.2-131.84s131.2 59.008 131.2 131.84-58.752 131.84-131.2 131.84zM825.792 106.624h-50.048v-50.304h-50.176v50.304h-50.048v50.432h50.048v50.304h50.176v-50.304h50.048v-50.432z" />
<glyph unicode="&#xe956;" glyph-name="wa-redaction" d="M927.168 56.512h-830.464v696.064h415.232v-56.32h-358.912v-583.424h717.824v355.712h56.32zM540.224 297.152l-49.664 98.688-99.968 49.408 301.824 299.136 39.68-39.936-245.888-243.712 46.080-22.784 23.296-46.208 246.272 244.096 39.68-40.064zM876.352 630.464l-149.376 148.224 20.224 19.968c41.088 40.832 108.032 40.832 149.12 0 19.968-19.84 30.976-46.208 30.976-74.24s-11.008-54.528-30.976-74.24l-19.968-19.712zM813.376 772.416l56.832-56.32c0.512 2.816 0.768 5.632 0.768 8.448 0 12.928-5.12 25.088-14.336 34.304-11.776 11.52-28.032 16.128-43.264 13.568zM280.768 187.968l72.704 216.32 53.376-17.92-36.864-109.568 110.848 36.608 17.664-53.504z" />
<glyph unicode="&#xe957;" glyph-name="wa-rendrevisible" d="M406.272 505.856h-360.576v56.32h321.024l118.784 331.136 52.992-19.072zM166.144 2.688l125.568 335.616-170.88 82.944 24.704 50.688 216.832-105.344-87.424-233.856 237.056 140.672 237.056-140.672-87.424 233.856 216.832 105.344 24.704-50.688-170.88-82.944 125.568-335.616-345.856 205.184zM978.304 505.856h-400.384l-63.872 229.504 54.144 15.104 52.608-188.288h357.504z" />
<glyph unicode="&#xe958;" glyph-name="wa-service" d="M178.048 571.072c-43.904 0-79.616 35.328-79.616 78.592s35.712 78.592 79.616 78.592c43.904-0.128 79.616-35.456 79.616-78.592-0.128-43.264-35.84-78.592-79.616-78.592zM177.92 672.064c-12.672 0-23.168-9.984-23.168-22.272s10.496-22.272 23.296-22.272 23.296 9.984 23.296 22.272c-0.128 12.16-10.496 22.144-23.424 22.272zM178.048 369.344c-43.904 0-79.616 35.328-79.616 78.592s35.712 78.592 79.616 78.592 79.616-35.328 79.616-78.592-35.84-78.592-79.616-78.592zM178.048 470.336c-12.8 0-23.296-9.984-23.296-22.272s10.496-22.272 23.296-22.272 23.296 9.984 23.296 22.272-10.496 22.272-23.296 22.272zM178.048 167.744c-43.904 0-79.616 35.328-79.616 78.592s35.712 78.592 79.616 78.592 79.616-35.328 79.616-78.592-35.84-78.592-79.616-78.592zM178.048 268.736c-12.8 0-23.296-9.984-23.296-22.272s10.368-22.4 23.296-22.4 23.296 9.984 23.296 22.272-10.496 22.4-23.296 22.4zM925.568 571.072h-619.136v56.32h562.816v44.544h-562.816v56.32h619.136zM925.568 369.472h-619.136v56.32h562.816v44.544h-562.816v56.32h619.136zM925.568 167.872h-619.136v56.32h562.816v44.544h-562.816v56.32h619.136z" />
<glyph unicode="&#xe959;" glyph-name="wa-temoignage" d="M421.504 408.704v317.184l327.040-158.464-327.040-158.72zM477.824 636.032v-137.344l141.568 68.736-141.568 68.608zM512 170.112c-109.056 0-211.712 41.216-288.896 115.968-77.44 75.008-120.064 174.976-120.064 281.216h56.32c0-90.88 36.608-176.384 102.912-240.768 66.688-64.64 155.264-100.096 249.728-100.096s183.040 35.584 249.728 100.096c66.432 64.384 102.912 149.888 102.912 240.768h56.32c0-106.24-42.624-206.208-120.064-281.216-77.184-74.752-179.84-115.968-288.896-115.968z" />
<glyph unicode="&#xe95a;" glyph-name="wa-menu" d="M0 767.631h286.878v-286.878h-286.878v286.878zM376.201 767.631h286.918v-286.878h-286.918v286.878zM737.201 767.631h286.798v-286.878h-286.798v286.878zM0 415.317h286.878v-286.949h-286.878v286.949zM376.201 415.317h286.918v-286.949h-286.918v286.949zM737.201 415.317h286.798v-286.949h-286.798v286.949z" />
<glyph unicode="&#xe95b;" glyph-name="wa-power" d="M872.472 573.828c41.641-83.271 52.947-170.156 33.911-260.555-20.231-95.207-67.511-172.502-141.868-232.001s-158.557-89.231-252.515-89.231c-27.386 0-54.169 2.418-80.305 7.127-105.904 21.427-189.795 79.11-251.612 173.095-61.872 92.789-81.501 193.326-58.879 301.593 13.077 63.040 38.957 119.263 77.632 168.651 38.62 49.334 87.123 87.715 145.426 115.101 7.127 3.586 14.272 3.824 21.427 0.885 7.127-2.993 12.484-8.013 16.070-15.185s3.824-14.272 0.885-21.427c-2.993-7.127-8.013-12.484-15.185-16.070-48.813-23.8-89.851-56.825-123.141-99.031-33.318-42.261-55.32-90.116-66.033-143.655-20.259-93.985-3.586-180.852 49.981-260.555 52.327-79.713 123.734-128.471 214.16-146.339 92.789-20.231 179.027-3.851 258.757 49.078 79.713 52.919 129.091 125.815 148.127 218.604 16.645 78.535 7.127 153.173-28.554 223.961-35.681 70.76-89.823 123.397-162.382 157.938-7.127 3.586-11.909 8.925-14.272 16.070s-2.081 14.272 0.885 21.427 8.323 12.174 16.070 15.185c7.747 2.939 15.185 2.656 22.312-0.885 84.439-39.213 147.507-100.537 189.137-183.781zM485.245 561.344v314.077c0 8.295 2.656 15.185 8.013 20.524s12.174 8.013 20.524 8.013c8.295 0 15.185-2.656 20.524-8.013s8.040-12.201 8.040-20.524v-314.077c0-8.35-2.656-15.185-8.040-20.524-5.357-5.357-12.201-8.013-20.524-8.013-8.35 0-15.185 2.656-20.524 8.013s-8.013 12.174-8.013 20.524z" />
<glyph unicode="&#xe95c;" glyph-name="bell, mes-notifs" d="M158.88 114.112c-21.536 0-39.52 9.12-49.344 25.088-9.856 15.936-9.984 36.16-0.352 55.392l123.52 217.152c5.248 9.216 15.072 14.944 25.664 14.944 5.088 0 10.112-1.344 14.56-3.872 14.112-8.032 19.072-26.048 11.040-40.192l-119.296-209.6h694.656l-119.328 209.632c-3.872 6.816-4.864 14.752-2.784 22.336s7.008 13.92 13.856 17.824c4.448 2.56 9.408 3.872 14.464 3.872 10.624 0 20.48-5.728 25.728-14.944l122.816-215.808c10.112-20.224 10.368-40.576 0.416-56.672-9.888-15.968-27.872-25.088-49.408-25.088h-20.704l0.032-0.064h-685.536zM511.872-37.952c-86.176 0-156.288 70.080-156.288 156.256 0 16.288 13.248 29.504 29.472 29.504s29.472-13.216 29.472-29.504c0-53.664 43.68-97.344 97.344-97.344 53.76 0 97.472 43.68 97.472 97.344 0 16.288 13.184 29.504 29.44 29.504s29.472-13.216 29.472-29.504c0-86.176-70.176-156.256-156.384-156.256zM765.664 621.376c-16.288 0-29.504 13.248-29.504 29.472 0 123.616-100.64 224.16-224.288 224.16-123.552 0-224.064-100.544-224.064-224.16 0-16.256-13.216-29.472-29.472-29.472s-29.472 13.216-29.472 29.472c0 156.096 126.976 283.104 283.040 283.104 156.16 0 283.2-127.008 283.2-283.104 0-16.256-13.184-29.472-29.44-29.472zM258.336 367.776c-16.256 0-29.472 13.216-29.472 29.472v253.6c0 16.256 13.248 29.472 29.472 29.472s29.472-13.216 29.472-29.472v-253.632c0-16.224-13.216-29.44-29.472-29.44zM765.6 367.776c-16.256 0-29.44 13.216-29.44 29.472v253.6c0 16.256 13.184 29.472 29.44 29.472s29.472-13.216 29.472-29.472v-253.632c0-16.224-13.216-29.44-29.472-29.44z" />
<glyph unicode="&#xe95d;" glyph-name="profil-valid" d="M465.433 397.159c136.96 0 248.474 112.486 248.525 250.624 0 66.918-25.907 129.792-72.704 177.152-46.899 47.36-109.312 73.472-175.821 73.472-136.96 0-248.474-112.435-248.474-250.675 0-66.918 25.856-129.792 72.704-177.152 46.848-47.309 109.363-73.421 175.77-73.421zM465.433 842.087c105.984 0 192.154-87.194 192.154-194.304s-86.17-194.304-192.154-194.304c-105.933 0-192.102 87.194-192.102 194.304s86.118 194.304 192.102 194.304zM172.569 64.051l22.272 202.394 122.010 49.203-21.043 52.326-153.19-62.003-32.87-298.189h453.12l-35.686 56.269zM733.516 359.168c-99.84 0-180.787-80.947-180.787-180.787 0-99.789 80.947-180.787 180.787-180.787s180.736 80.998 180.736 180.787c0 99.84-80.896 180.787-180.736 180.787zM842.982 238.387l-104.243-159.181c-1.843-2.714-3.635-4.915-5.427-6.81-10.086-11.008-20.224-11.008-30.208 0l-78.182 76.8c-4.608 4.608-6.912 9.728-6.912 15.872 0 5.939 2.304 11.162 6.912 15.77 9.984 10.035 20.582 10.035 31.488 0l57.702-58.88 94.669 144.026c9.165 11.008 19.456 11.878 30.925 2.816 11.264-9.421 12.39-19.456 3.277-30.413z" />
<glyph unicode="&#xe95e;" glyph-name="eye-close" d="M894.192 862.96l-161.551-154.925c-67.825 34.455-140.649 52.646-218.895 52.646-96.497 0-185.585-26.202-267.324-78.547-81.8-52.344-143.24-124.386-184.38-216.184 0-1.205 0-2.409 0-3.554 0-1.205-0.602-1.747-1.747-1.747v-3.554c0-3.554 0-6.204 0-7.951s0-4.397 0-7.951v-3.433c1.144 0 1.747-0.602 1.747-1.747v-1.747c38.671-87.341 95.654-155.708 169.623-206.667l-157.395-151.010 41.683-43.55 819.863 786.432-41.623 43.49zM116.735 450.107c37.647 81.197 92.341 143.842 164.141 187.934 71.74 44.092 149.384 66.199 232.93 66.199 62.283 0 120.772-12.83 175.827-37.466l-80.655-77.342c-27.708 18.793-59.151 28.311-94.268 28.311-46.502 0-86.257-16.504-119.145-49.393-32.949-32.949-49.393-72.644-49.393-119.145 0-32.648 8.614-61.862 24.817-88.064l-98.485-94.449c-67.403 43.249-119.567 104.087-155.768 183.416zM412.491 401.015c-7.469 15.119-11.625 31.322-11.625 49.092 0 30.6 11.144 57.043 33.491 79.39s48.791 33.551 79.39 33.551c19.396 0 36.984-5 53.067-14.035l-154.323-147.998zM514.71 335.359c-2.831 0-5.421 0.602-8.192 0.783l-48.971-46.923c17.83-6.445 36.683-10.3 57.163-10.3 46.441 0 86.438 16.806 119.989 50.357s50.236 73.487 50.236 119.989c0 17.83-3.253 34.334-8.192 50.176l-50.236-48.188c0-0.663 0.181-1.265 0.181-1.988 0-31.142-10.842-57.946-32.587-80.294s-48.248-33.611-79.39-33.611zM961.957 460.648v3.554c-32.286 72.824-77.041 132.819-133.542 180.706l-40.358-38.671c49.694-41.080 89.69-93.425 119.206-157.937-37.647-81.197-91.979-143.541-163.177-187.091s-148.6-65.295-232.087-65.295c-45.478 0-89.028 7.048-130.831 19.998l-45.116-43.309c55.597-21.323 114.025-33.19 175.887-33.19 96.437 0 185.284 25.901 266.421 77.643s142.336 123.543 183.537 215.341c0 1.144 0 2.349 0 3.554 0 1.144 0.602 1.747 1.747 1.747v3.554c0 3.554 0 6.204 0 7.951s0 4.397 0 7.951c0.060 2.349-0.542 3.494-1.687 3.494z" />
<glyph unicode="&#xe95f;" glyph-name="profil-search" d="M784.974 531.481c0 96.768-37.376 187.648-105.421 256-67.942 68.454-158.464 106.138-254.566 106.138s-186.47-37.786-254.413-106.138c-67.994-68.352-105.37-159.334-105.37-256 0-96.614 37.478-187.546 105.37-255.846 67.942-68.506 158.464-106.086 254.566-106.086s186.522 37.581 254.464 105.933c67.994 68.352 105.37 159.386 105.37 256zM425.14 225.817c-81.050 0-157.184 31.693-214.528 89.498-57.344 57.702-88.934 134.502-88.934 216.166 0 81.818 31.59 158.618 88.934 216.32s133.478 89.498 214.528 89.498 157.184-31.744 214.528-89.344c57.293-57.856 88.934-134.656 88.934-216.32 0-81.766-31.642-158.566-88.934-216.269-57.344-57.856-133.53-89.549-214.528-89.549zM926.644 145.331l-149.658 155.238-40.55-39.066 150.067-155.802c10.598-10.701 10.598-28.262 0-39.014-5.018-5.12-11.878-7.936-19.098-7.936s-13.926 2.867-19.098 7.936l-154.675 150.989-39.322-40.294 154.214-150.477c15.77-15.821 36.608-24.525 58.88-24.525 22.426 0 43.418 8.704 59.085 24.678 32.307 32.768 32.307 85.76 0.154 118.272zM422.426 499.993c69.888 0 126.669 56.832 126.669 126.72s-56.73 126.72-126.669 126.72-126.72-56.832-126.72-126.72c0-69.888 56.832-126.72 126.72-126.72zM422.426 697.267c38.81 0 70.4-31.642 70.4-70.4 0-38.81-31.59-70.4-70.4-70.4-38.758 0-70.4 31.59-70.4 70.4 0 38.758 31.488 70.4 70.4 70.4zM509.62 517.503l-20.992-52.326 45.773-18.278 6.963-62.976h-232.602l6.912 62.976 45.978 18.278-20.89 52.326-77.312-30.976-17.664-158.976h358.605l-17.818 158.976z" />
</font>
</defs>
</svg>
